<?xml version="1.0" encoding="UTF-8"?>
<svg version="1.1" xmlns="http://www.w3.org/2000/svg" width="1024" height="1024">
<path d="M0 0 C3.56495042 0.64614826 5.87443146 1.31147741 8.79296875 3.484375 C9.49615234 4.00064453 10.19933594 4.51691406 10.92382812 5.04882812 C11.67083984 5.61021484 12.41785156 6.17160156 13.1875 6.75 C14.80582258 7.94293493 16.42431692 9.13563686 18.04296875 10.328125 C19.27926025 11.24561523 19.27926025 11.24561523 20.54052734 12.18164062 C24.33625546 14.98793237 28.16846664 17.74291334 32 20.5 C36.52834136 23.76671637 41.05368257 27.03741845 45.5703125 30.3203125 C52.65727007 35.46563786 59.76460758 40.56498073 67 45.5 C75.01261992 50.96514017 82.86809543 56.636524 90.71337891 62.33837891 C104.68034772 72.48776922 118.71984794 82.52641092 132.87890625 92.40625 C143.24217763 99.63882415 153.53816721 106.95322414 163.76464844 114.37792969 C167.5891941 117.15318977 171.41966771 119.92023503 175.25 122.6875 C175.9217627 123.17355713 176.59352539 123.65961426 177.28564453 124.16040039 C177.95966309 124.64758545 178.63368164 125.13477051 179.328125 125.63671875 C180.04057373 126.17433838 180.75302246 126.71195801 181.48706055 127.26586914 C184.05917753 129.11784446 184.05917753 129.11784446 187.30395508 130.71655273 C200.63339003 138.04972226 203.60391599 150.97898555 208.1875 164.6875 C209.0469455 167.14376985 209.91074331 169.59852101 210.77880859 172.05175781 C212.86739531 177.98163587 214.90778646 183.92663923 216.93243408 189.87860107 C218.37936941 194.10921794 219.86726215 198.32448209 221.37109375 202.53515625 C221.61272247 203.21182846 221.8543512 203.88850067 222.103302 204.5856781 C222.33475922 205.23359818 222.56621643 205.88151825 222.8046875 206.54907227 C223.66941959 208.97297643 224.52774198 211.39917908 225.37890625 213.82788086 C228.71005722 223.32770556 232.29500881 232.7178397 236.00634766 242.07519531 C236.39999512 243.07647461 236.79364258 244.07775391 237.19921875 245.109375 C237.72261841 246.42373535 237.72261841 246.42373535 238.2565918 247.76464844 C239 250 239 250 239 253 C231.27352456 253.09454033 223.6613153 252.86905636 215.96289062 252.22143555 C214.92966171 252.13847229 213.8964328 252.05550903 212.83189392 251.97003174 C209.43964219 251.6966368 206.04797231 251.41659819 202.65625 251.13671875 C200.24536085 250.94162586 197.83443054 250.74704094 195.42346191 250.55293274 C189.06804743 250.04025757 182.71307225 249.52234367 176.35821533 249.00280762 C166.33468914 248.18364801 156.31075103 247.36959584 146.28643799 246.56012344 C143.82753457 246.36142041 141.36867207 246.16221047 138.90985107 245.96249008 C126.20386149 244.93180173 113.49811702 243.93899621 100.77734375 243.10791016 C99.23086529 243.00639696 99.23086529 243.00639696 97.65314484 242.90283298 C92.86363484 242.59065361 88.07378931 242.2889443 83.28259277 242.00382996 C81.60570495 241.89826854 79.92882459 241.79258851 78.25195312 241.68676758 C77.51156296 241.64636919 76.77117279 241.6059708 76.00834656 241.56434822 C70.50379635 241.2075953 65.07259968 240.7295487 60.734375 237.109375 C59.75210938 235.94148438 59.75210938 235.94148438 58.75 234.75 C57.98816406 233.8528125 57.22632813 232.955625 56.44140625 232.03125 C53.35893688 228.20405603 50.31412147 224.34953331 47.30444336 220.46484375 C43.44460088 215.49979547 39.39077887 210.72736157 35.2746582 205.97412109 C31.78261746 201.93490097 28.39640414 197.83260205 25.11914062 193.61572266 C23.68918774 191.85068634 22.19846715 190.13343287 20.65600586 188.46582031 C13.51644182 180.58758465 10.06407369 172.86416322 6.6875 162.875 C6.15012846 161.35004506 5.60978271 159.82613533 5.06665039 158.30322266 C4.22457925 155.94021277 3.38462385 153.57664686 2.55406189 151.20956421 C-0.22804434 143.28146735 -3.20035513 135.43019606 -6.21347046 127.58746338 C-7.04208265 125.42820502 -7.86498997 123.26684772 -8.68676758 121.10498047 C-9.19859839 119.76524901 -9.71055706 118.4255664 -10.22265625 117.0859375 C-10.46325272 116.45074188 -10.70384918 115.81554626 -10.95173645 115.16110229 C-12.26670642 111.73312417 -13.74938536 108.48543727 -15.43359375 105.2265625 C-19.87700555 95.10301226 -14.29801859 79.74587851 -12.40234375 69.23828125 C-12.04464262 67.23625319 -11.68735453 65.2341513 -11.33045959 63.23197937 C-10.39586482 57.99528014 -9.45570821 52.75959472 -8.51434326 47.52410889 C-7.55238915 42.16837265 -6.59576279 36.81168517 -5.63867188 31.45507812 C-3.76429301 20.96912055 -1.88403007 10.48422751 0 0 Z " fill="#0C7FC8" transform="translate(251,275)"/>
<path d="M0 0 C0.62591064 5.42658447 1.18896178 10.85510813 1.71240234 16.29248047 C1.98770903 18.88428956 2.33974778 21.45502798 2.70703125 24.03515625 C3.70238997 32.03812909 4.15573381 37.75382522 -1 44.4375 C-2.42637441 46.04932888 -3.88454313 47.62362436 -5.36230469 49.18847656 C-8.53379984 52.6966003 -11.30172069 56.52314826 -14.125 60.3125 C-14.75921875 61.15562744 -15.3934375 61.99875488 -16.046875 62.86743164 C-23.10035028 72.32270658 -29.54247932 82.17219997 -36.02685547 92.02148438 C-39.16121135 96.75288029 -42.35856217 101.44054972 -45.5625 106.125 C-46.17883301 107.02677979 -46.79516602 107.92855957 -47.43017578 108.85766602 C-48.6697093 110.67050409 -49.90961679 112.48308652 -51.14990234 114.29541016 C-54.22979523 118.79779251 -57.30216586 123.30529863 -60.375 127.8125 C-60.98504883 128.70662598 -61.59509766 129.60075195 -62.22363281 130.52197266 C-65.61387168 135.49249744 -68.99657857 140.46800372 -72.37109375 145.44921875 C-95.66715449 179.82489518 -95.66715449 179.82489518 -102.5 184.5 C-106.95726375 187.7681057 -110.70788457 191.59962092 -114.56518555 195.53393555 C-117.97857871 199.00792469 -121.4974166 202.26687228 -125.20703125 205.42578125 C-127.05429629 207.0476719 -128.77756714 208.74660205 -130.5 210.5 C-133.47766674 213.5247179 -136.59306278 216.32499535 -139.80859375 219.09375 C-143.22393374 222.06466964 -146.55611489 225.12710183 -149.8984375 228.1796875 C-152.80237365 230.69499279 -154.60410363 231.15598304 -158.35107422 231.48071289 C-159.2531662 231.56072037 -160.15525818 231.64072784 -161.08468628 231.72315979 C-162.06478668 231.80549362 -163.04488708 231.88782745 -164.0546875 231.97265625 C-165.06661163 232.06002548 -166.07853577 232.14739471 -167.12112427 232.2374115 C-169.2713286 232.4218142 -171.42171628 232.6040893 -173.57226562 232.78442383 C-176.82744385 233.05849597 -180.08167474 233.34224224 -183.3359375 233.62695312 C-185.42963708 233.8052805 -187.52338578 233.98303224 -189.6171875 234.16015625 C-190.57704559 234.24451431 -191.53690369 234.32887238 -192.52584839 234.41578674 C-199.36252501 234.97858376 -206.14185563 235.09101484 -213 235 C-212.34983772 232.26451922 -211.57184137 229.6255294 -210.64794922 226.97045898 C-210.37612823 226.18929214 -210.10430725 225.40812531 -209.82424927 224.60328674 C-209.38144119 223.34366371 -209.38144119 223.34366371 -208.9296875 222.05859375 C-208.46379715 220.73135536 -208.46379715 220.73135536 -207.98849487 219.37730408 C-203.82779066 207.5966504 -199.37028403 195.92842646 -194.90527344 184.26049805 C-194.14207059 182.26240082 -193.37938106 180.26410745 -192.6171875 178.265625 C-192.04508545 176.76561699 -192.04508545 176.76561699 -191.46142578 175.23530579 C-189.11110845 169.03595351 -186.85333964 162.81084119 -184.66610718 156.55213928 C-183.22983455 152.44926033 -181.76356208 148.35737885 -180.29534912 144.26583862 C-179.60707241 142.32130721 -178.9333528 140.37155191 -178.27545166 138.41653442 C-173.91734311 125.4872739 -169.77251467 118.08621571 -158 111 C-156.53903441 109.96460416 -155.08570389 108.91824173 -153.64453125 107.85546875 C-152.36901931 106.96352054 -151.0916754 106.07418631 -149.8125 105.1875 C-143.83798446 101.00806721 -137.90260829 96.78039572 -132 92.5 C-121.77787437 85.096673 -111.47172811 77.81616547 -101.12109375 70.59375 C-89.19607816 62.27122748 -77.37902332 53.81308222 -65.61376953 45.26660156 C-63.2226792 43.53051864 -60.83011299 41.79648354 -58.4375 40.0625 C-57.72384277 39.54292725 -57.01018555 39.02335449 -56.27490234 38.48803711 C-54.1922346 36.97891749 -52.09979101 35.48519454 -50 34 C-49.20021729 33.431604 -48.40043457 32.86320801 -47.57641602 32.27758789 C-46.77776123 31.72449951 -45.97910645 31.17141113 -45.15625 30.6015625 C-44.43115234 30.0957666 -43.70605469 29.5899707 -42.95898438 29.06884766 C-41 28 -41 28 -38.0625 28.3125 C-36.5465625 29.1478125 -36.5465625 29.1478125 -35 30 C-33.20962298 30.87763579 -31.41786406 31.75245606 -29.625 32.625 C-28.08133784 33.41276859 -26.53898561 34.20313394 -25 35 C-25.14824219 33.79085937 -25.29648437 32.58171875 -25.44921875 31.3359375 C-26.29680531 18.76254472 -26.29680531 18.76254472 -22.13623047 13.75830078 C-16.90996221 9.11747981 -11.01442679 5.51965334 -5 2 C-2 0 -2 0 0 0 Z " fill="#0C7FC8" transform="translate(721,293)"/>
<path d="M0 0 C-0.55942627 8.35073477 -2.22853143 16.37292001 -4.02734375 24.53125 C-4.33568262 25.95049175 -4.6434275 27.36986265 -4.95062256 28.78935242 C-5.60293008 31.79990714 -6.25817536 34.80979944 -6.91586304 37.81918335 C-8.64098122 45.71609965 -10.34470744 53.61764135 -12.046875 61.51953125 C-12.2170986 62.3091305 -12.3873222 63.09872974 -12.56270409 63.91225624 C-16.36181327 81.5482825 -19.92797333 99.22742363 -23.40931702 116.92886353 C-24.09867147 120.42619326 -24.79569505 123.92198152 -25.49212646 127.41790771 C-26.02377501 130.12087509 -26.53660694 132.82707346 -27.04931641 135.53369141 C-27.39302835 137.28949114 -27.73724579 139.04519201 -28.08203125 140.80078125 C-28.23113449 141.61500046 -28.38023773 142.42921967 -28.53385925 143.26811218 C-28.98364258 145.51293945 -28.98364258 145.51293945 -30 149 C-30.99 149.33 -31.98 149.66 -33 150 C-33.70353783 151.3142514 -34.36573485 152.65095221 -35 154 C-36.05764211 155.26828789 -37.16540341 156.49574632 -38.30859375 157.6875 C-38.96802979 158.38045166 -39.62746582 159.07340332 -40.30688477 159.78735352 C-41.00998779 160.51752686 -41.71309082 161.2477002 -42.4375 162 C-43.89381019 163.52939487 -45.3495369 165.05934554 -46.8046875 166.58984375 C-47.51979492 167.33991699 -48.23490234 168.08999023 -48.97167969 168.86279297 C-55.21334043 175.43952602 -61.31872078 182.14586465 -67.25 189.00390625 C-69.34078483 191.38870769 -71.48496165 193.72183306 -73.625 196.0625 C-76.26975857 198.97759165 -78.71358017 201.87768344 -80.9375 205.125 C-81.618125 206.07375 -82.29875 207.0225 -83 208 C-83.66 208 -84.32 208 -85 208 C-86.26171875 206.4621582 -86.26171875 206.4621582 -87.6875 204.30078125 C-88.21601563 203.51058594 -88.74453125 202.72039062 -89.2890625 201.90625 C-89.85367188 201.0503125 -90.41828125 200.194375 -91 199.3125 C-94.84904599 193.57284331 -98.72016221 187.92722851 -103 182.5 C-107.02548203 177.37369845 -110.72612498 172.08755596 -114.375 166.6875 C-118.92134304 159.96160425 -123.61812861 153.39991369 -128.53491211 146.94067383 C-132.80522464 141.31416723 -136.88233755 135.56338062 -140.90454102 129.75732422 C-141.36787842 129.0923291 -141.83121582 128.42733398 -142.30859375 127.7421875 C-142.75187012 127.1037793 -143.19514648 126.46537109 -143.65185547 125.80761719 C-144.97048907 124.03956881 -146.39943683 122.48668342 -147.91015625 120.8828125 C-150 118 -150 118 -149.7722168 115.18261719 C-149.00306297 112.01262374 -148.00521597 109.19763726 -146.734375 106.1953125 C-146.26330322 105.06939697 -145.79223145 103.94348145 -145.30688477 102.78344727 C-144.52048305 100.93552038 -143.73406763 99.08759923 -142.94699097 97.23995972 C-142.11195416 95.27688362 -141.27962519 93.31269552 -140.44921875 91.34765625 C-140.16477402 90.67526413 -139.88032928 90.00287201 -139.58726501 89.31010437 C-137.80090781 85.04259595 -136.14169556 80.74517823 -134.56930542 76.39440918 C-133.51509713 73.4802616 -132.42757064 70.57897362 -131.3392334 67.6774292 C-130.82697417 66.28262372 -130.33101178 64.88170966 -129.85266113 63.47491455 C-126.14805173 52.61371768 -126.14805173 52.61371768 -121.45507812 49.08813477 C-118.70999738 47.79098182 -115.96586052 46.72012028 -113.09164429 45.74624634 C-109.84659136 44.58849266 -106.71052994 43.19269496 -103.55099487 41.82151794 C-98.84195507 39.78013302 -94.10582963 37.80273296 -89.375 35.8125 C-88.37356964 35.39037231 -87.37213928 34.96824463 -86.34036255 34.5333252 C-73.8914376 29.28600223 -61.4298251 24.07683674 -48.89990234 19.02539062 C-42.40230056 16.40212887 -35.93134293 13.72120649 -29.47265625 11.00390625 C-28.64757065 10.65740021 -27.82248505 10.31089417 -26.97239685 9.95388794 C-22.8746991 8.23292237 -18.7792316 6.50698795 -14.68725586 4.77246094 C-13.19785809 4.14623654 -11.70836094 3.52024841 -10.21875 2.89453125 C-9.53261124 2.60139542 -8.84647247 2.30825958 -8.13954163 2.00624084 C-5.25250913 0.79924961 -3.16385531 0 0 0 Z " fill="#0D7FC8" transform="translate(489,538)"/>
<path d="M0 0 C1.87939453 0.30126953 1.87939453 0.30126953 4 1 C5.01690406 2.67562733 6.023997 4.35994995 6.93261719 6.09667969 C8.60881766 9.08562271 10.86509682 11.57174401 13.125 14.125 C16.88361237 18.46869128 20.52174326 22.86583777 24 27.4375 C24.61053223 28.23945801 24.61053223 28.23945801 25.23339844 29.05761719 C26.06493337 30.15043568 26.89631257 31.24337267 27.72753906 32.33642578 C29.91911619 35.20162274 32.14557457 38.03920895 34.375 40.875 C34.83148926 41.45588379 35.28797852 42.03676758 35.75830078 42.63525391 C38.61268086 46.25930964 41.49187721 49.86253899 44.38305664 53.45727539 C49.15308217 59.38877989 53.83589197 65.37425342 58.4375 71.4375 C63.25950471 77.78748286 68.21032156 84.01355056 73.25878906 90.18457031 C78.60036934 96.71676327 83.8205647 103.33881903 89 110 C89.45568359 110.58475098 89.91136719 111.16950195 90.38085938 111.77197266 C91.73584063 113.51252156 93.08735583 115.25569718 94.4375 117 C95.21996094 118.010625 96.00242187 119.02125 96.80859375 120.0625 C98.98756681 122.98333376 101.00777942 125.95040495 103 129 C102.04468384 129.53403442 102.04468384 129.53403442 101.07006836 130.07885742 C89.57414578 136.5068288 78.08390569 142.94371463 66.625 149.4375 C56.93887402 154.92528941 47.21062316 160.33524332 37.47387695 165.73242188 C29.613089 170.09333544 21.78103618 174.49821752 14 179 C11.8487646 175.7731469 10.57487447 172.51973633 9.234375 168.9140625 C8.96415024 168.19658844 8.69392548 167.47911438 8.41551208 166.73989868 C7.82995787 165.18371879 7.24615847 163.62687773 6.66390991 162.06945801 C5.74333434 159.60717118 4.81820872 157.14663825 3.8918457 154.68652344 C2.59286595 151.23539638 1.2957965 147.78356147 0.00048828 144.33105469 C-2.95343205 136.45790922 -5.91367297 128.58716256 -8.88195801 120.71942139 C-9.80482693 118.27036237 -10.72427189 115.82003586 -11.64355469 113.36962891 C-12.20622268 111.87656823 -12.76903999 110.38356381 -13.33203125 108.890625 C-13.71700523 107.86045761 -13.71700523 107.86045761 -14.10975647 106.80947876 C-15.14564153 103.66325928 -15.14564153 103.66325928 -17 101 C-17.03211401 90.42320986 -14.27264196 79.60521757 -12.40234375 69.23828125 C-12.04464262 67.23625319 -11.68735453 65.2341513 -11.33045959 63.23197937 C-10.39586482 57.99528014 -9.45570821 52.75959472 -8.51434326 47.52410889 C-7.55238915 42.16837265 -6.59576279 36.81168517 -5.63867188 31.45507812 C-3.76429301 20.96912055 -1.88403007 10.48422751 0 0 Z " fill="#16ACF5" transform="translate(251,275)"/>
<path d="M0 0 C4.57742862 1.24838962 6.96079136 3.77500788 10.13671875 7.09375 C11.89866318 8.89632628 13.71366279 10.54576193 15.625 12.1875 C19.28143897 15.34082431 22.83484201 18.59272752 26.375 21.875 C31.03926296 26.19764932 35.73694285 30.47816757 40.47265625 34.72265625 C43.849234 37.7652294 47.19480481 40.84118744 50.54150391 43.91650391 C53.65651092 46.77616612 56.78860242 49.61523037 59.9375 52.4375 C66.58669498 58.40690508 73.12993319 64.49088777 79.68652344 70.56152344 C85.91460559 76.32638972 92.16159369 82.06491842 98.48046875 87.73046875 C102.83536943 91.65325525 107.14721157 95.6230972 111.46337891 99.58837891 C113.49417501 101.4539752 115.52581583 103.31864803 117.55810547 105.18261719 C118.55354924 106.09567272 119.54867151 107.0090789 120.54345703 107.92285156 C123.08414217 110.25426426 125.63399575 112.57450044 128.19921875 114.87890625 C128.96770142 115.57101196 128.96770142 115.57101196 129.75170898 116.27709961 C131.17111595 117.55403392 132.5932904 118.82788999 134.015625 120.1015625 C134.67046875 120.72804688 135.3253125 121.35453125 136 122 C136 122.33 136 122.66 136 123 C128.64501683 123.0995522 121.40452846 122.83556624 114.07641602 122.22143555 C113.04333313 122.13847229 112.01025024 122.05550903 110.94586182 121.97003174 C107.54820658 121.69625715 104.15107978 121.41640149 100.75390625 121.13671875 C98.34158496 120.94166147 95.9292255 120.74707564 93.51683044 120.55293274 C87.15321124 120.03990307 80.78998993 119.5221104 74.42687988 119.00280762 C63.16133244 118.0836141 51.89530176 117.17045488 40.62890625 116.26171875 C39.41205769 116.16330563 38.19520912 116.0648925 36.94148636 115.96349716 C18.36757671 114.46433968 -0.21193327 113.10305666 -18.80845642 111.91593933 C-19.66393255 111.86038313 -20.51940868 111.80482693 -21.40080833 111.7475872 C-22.96921352 111.64601588 -24.53778365 111.54694225 -26.1065464 111.45105171 C-30.12622369 111.19005009 -34.03949797 110.7365718 -38 110 C-35.5769471 101.4988253 -32.73171829 93.14594641 -29.86645508 84.78637695 C-29.06350264 82.44042935 -28.26700245 80.09235356 -27.47070312 77.74414062 C-25.17401212 71.01155499 -22.86379388 64.38524529 -19.85717773 57.92993164 C-18.28313958 54.38599214 -17.18036343 50.68932198 -16 47 C-15.21080858 44.62417635 -14.41889218 42.249257 -13.625 39.875 C-13.19256075 38.57817421 -12.76027127 37.28129846 -12.328125 35.984375 C-11.44270833 33.328125 -10.55729167 30.671875 -9.671875 28.015625 C-9.45617355 27.36848038 -9.24047211 26.72133575 -9.01823425 26.05458069 C-8.38903685 24.16710788 -7.7595848 22.27971996 -7.13012695 20.39233398 C-6.44477236 18.33508574 -5.76066287 16.27742136 -5.07885742 14.21899414 C-3.88007476 10.60179128 -2.67208488 6.99831754 -1.3125 3.4375 C-0.879375 2.303125 -0.44625 1.16875 0 0 Z " fill="#0661AA" transform="translate(353,405)"/>
<path d="M0 0 C4.26717347 0.57174289 7.79624222 1.59197702 11.7265625 3.3359375 C12.82701904 3.81780518 13.92747559 4.29967285 15.0612793 4.79614258 C16.23730713 5.31716553 17.41333496 5.83818848 18.625 6.375 C21.14189251 7.47617432 23.66200713 8.56977758 26.18359375 9.66015625 C26.8279689 9.9388707 27.47234406 10.21758514 28.13624573 10.50474548 C36.08365195 13.9229508 44.14355607 17.04618129 52.20654297 20.18041992 C61.18729605 23.67165076 70.11192078 27.27970399 79 31 C79 31.66 79 32.32 79 33 C77.86457764 33.23710693 76.72915527 33.47421387 75.55932617 33.71850586 C71.34898953 34.59822672 67.13914403 35.48027839 62.92944336 36.36303711 C61.10698558 36.74485913 59.28439502 37.12604794 57.46166992 37.5065918 C54.84258464 38.05351214 52.22398447 38.60270385 49.60546875 39.15234375 C48.78974899 39.3221727 47.97402924 39.49200165 47.1335907 39.66697693 C44.02701347 40.32087952 41.01460722 40.99513093 38 42 C38.30365479 42.64324219 38.60730957 43.28648437 38.92016602 43.94921875 C42.2784636 51.18307043 45.16509153 58.52503187 47.9375 66 C53.03151328 79.58846652 58.37232299 93.06967428 63.80541992 106.52581787 C64.36644771 107.92277051 64.9227809 109.32161692 65.47460938 110.722229 C66.82083167 114.13193125 68.21144923 117.49096516 69.76977539 120.80957031 C76.50672508 135.69907432 78.20012372 151.96556153 80.57983398 167.98858643 C81.06102691 171.19919433 81.56012183 174.4069043 82.06001949 177.614645 C83.09211556 184.23944458 84.11332529 190.86602935 85.10131836 197.49755859 C85.36276894 199.24146378 85.36276894 199.24146378 85.62950134 201.02059937 C86 204 86 204 86 208 C82.7091012 206.90303373 82.03203283 206.15198144 79.875 203.5625 C77.16899725 200.37328247 74.42934885 197.22841403 71.625 194.125 C70.86445312 193.28195312 70.10390625 192.43890625 69.3203125 191.5703125 C68.55460938 190.72210937 67.78890625 189.87390625 67 189 C65.49971321 187.33359149 63.99971128 185.66692647 62.5 184 C61.7575 183.175 61.015 182.35 60.25 181.5 C44.5 164 44.5 164 42.39519882 161.62908745 C40.87561103 159.96111352 39.31679525 158.32741901 37.7088356 156.74446297 C31.61653322 150.57782174 29.27491609 145.48228721 27.67089844 137.04638672 C27.42402283 135.89354187 27.17714722 134.74069702 26.92279053 133.55291748 C26.12026674 129.76764463 25.36471876 125.97463057 24.609375 122.1796875 C24.0578529 119.51481825 23.49635582 116.85207741 22.93511963 114.1892395 C21.61508376 107.89814657 20.3286942 101.60067465 19.05459046 95.30013764 C17.62131964 88.2206291 16.15119445 81.1489524 14.67752028 74.07776237 C12.12126533 61.80842099 9.59450365 49.53330542 7.09710312 37.25182915 C5.92450003 31.49287667 4.73848293 25.73727005 3.52453613 19.98687744 C3.29033085 18.87544436 3.05612556 17.76401127 2.81482315 16.61889839 C2.37231065 14.5241329 1.92728895 12.42989533 1.47933578 10.33628654 C1.28411457 9.41176249 1.08889336 8.48723843 0.88775635 7.53469849 C0.71557713 6.72747911 0.5433979 5.92025974 0.36600113 5.08857918 C0 3 0 3 0 0 Z " fill="#0C7FC8" transform="translate(509,538)"/>
<path d="M0 0 C0.39832031 1.05058594 0.79664063 2.10117187 1.20703125 3.18359375 C1.59145386 4.19740112 1.59145386 4.19740112 1.98364258 5.23168945 C2.53844297 6.70816119 3.08641427 8.18721622 3.62768555 9.66870117 C4.75331816 12.74629001 5.86974625 15.73406527 7.3125 18.6796875 C8.37334347 20.94226771 8.9582908 22.49744779 9 25 C7.30477599 29.12172111 4.66163299 32.45115602 2 36 C0.67657516 37.91326204 -0.62482212 39.84053917 -1.92700195 41.76831055 C-4.25334498 45.20064008 -6.6268692 48.59992412 -9 52 C-9.46438477 52.66628418 -9.92876953 53.33256836 -10.40722656 54.01904297 C-11.74516762 55.9332915 -13.08978803 57.8426213 -14.4375 59.75 C-14.83815674 60.32210205 -15.23881348 60.8942041 -15.65161133 61.48364258 C-18.79326964 65.89813988 -22.03357694 69.44402633 -26.5 72.5 C-30.95726375 75.7681057 -34.70788457 79.59962092 -38.56518555 83.53393555 C-41.97857871 87.00792469 -45.4974166 90.26687228 -49.20703125 93.42578125 C-51.05429629 95.0476719 -52.77756714 96.74660205 -54.5 98.5 C-57.47766674 101.5247179 -60.59306278 104.32499535 -63.80859375 107.09375 C-67.22393374 110.06466964 -70.55611489 113.12710183 -73.8984375 116.1796875 C-76.81291784 118.70412586 -78.62134781 119.15718395 -82.3828125 119.48071289 C-83.29135986 119.56072037 -84.19990723 119.64072784 -85.13598633 119.72315979 C-86.12236084 119.80549362 -87.10873535 119.88782745 -88.125 119.97265625 C-89.14166748 120.06002548 -90.15833496 120.14739471 -91.20581055 120.2374115 C-93.36441071 120.42178126 -95.52319049 120.60405804 -97.68212891 120.78442383 C-100.95921928 121.0590821 -104.23546378 121.34252339 -107.51171875 121.62695312 C-109.61193383 121.80522239 -111.71219303 121.98297279 -113.8125 122.16015625 C-114.78268066 122.24451431 -115.75286133 122.32887238 -116.75244141 122.41578674 C-122.85013815 122.91766954 -128.88244172 123.1006725 -135 123 C-130.71546933 117.8239676 -126.18563923 113.17829683 -121.25 108.625 C-120.54190186 107.96653076 -119.83380371 107.30806152 -119.10424805 106.62963867 C-114.60234711 102.45242123 -110.06170138 98.32058096 -105.48046875 94.23046875 C-102.50446678 91.55441028 -99.56303711 88.84259822 -96.625 86.125 C-88.80835246 78.89620845 -80.9891152 71.67088395 -73.0625 64.5625 C-66.40209513 58.58303109 -59.84436883 52.49205109 -53.28125 46.40625 C-42.28866906 36.2131295 -42.28866906 36.2131295 -38.125 32.625 C-34.24064897 29.26511831 -30.49869815 25.75937976 -26.75 22.25 C-21.97183618 17.77687606 -17.19160301 13.30676346 -12.375 8.875 C-11.45460938 8.02679688 -10.53421875 7.17859375 -9.5859375 6.3046875 C-2.51186441 0 -2.51186441 0 0 0 Z " fill="#0661AA" transform="translate(645,405)"/>
<path d="M0 0 C-1.08318867 3.24956601 -1.70216017 3.83392636 -4.25 5.9375 C-7.9809289 9.10313664 -11.60124007 12.36057152 -15.1875 15.6875 C-16.01834106 16.45682861 -16.01834106 16.45682861 -16.8659668 17.24169922 C-18.00763454 18.29914423 -19.14898912 19.35692744 -20.29003906 20.41503906 C-25.18510895 24.95227403 -30.09261254 29.47609581 -35 34 C-35.53044922 34.48919922 -36.06089844 34.97839844 -36.60742188 35.48242188 C-38.17471706 36.9269424 -39.74339398 38.36994693 -41.3125 39.8125 C-42.21613281 40.64394531 -43.11976563 41.47539062 -44.05078125 42.33203125 C-46.30228345 44.36882066 -48.57148719 46.37274542 -50.86328125 48.36328125 C-54.96084061 51.93743859 -58.92560126 55.63866348 -62.875 59.375 C-68.05873881 64.25733083 -73.27414104 69.09262762 -78.5859375 73.8359375 C-81.36721662 76.32918771 -84.12344751 78.84907129 -86.875 81.375 C-87.37805664 81.83680664 -87.88111328 82.29861328 -88.39941406 82.77441406 C-89.4223065 83.71375179 -90.44509241 84.65320554 -91.46777344 85.59277344 C-93.97677112 87.89708552 -96.48850468 90.19841091 -99 92.5 C-100.00001352 93.41665192 -101.00001351 94.3333186 -102 95.25 C-108 100.75 -108 100.75 -109.50219727 102.12695312 C-110.49495424 103.03702081 -111.48763098 103.94717603 -112.48022461 104.85742188 C-115.09036716 107.2508037 -117.70218327 109.64232523 -120.31640625 112.03125 C-120.85974609 112.52818359 -121.40308594 113.02511719 -121.96289062 113.53710938 C-123.47614689 114.9210275 -124.99000832 116.30428383 -126.50390625 117.6875 C-127.94530043 119.02287614 -129.36443058 120.38518403 -130.71484375 121.8125 C-132 123 -132 123 -134 123 C-133.34983772 120.26451922 -132.57184137 117.6255294 -131.64794922 114.97045898 C-131.24021774 113.79870872 -131.24021774 113.79870872 -130.82424927 112.60328674 C-130.52904388 111.76353806 -130.2338385 110.92378937 -129.9296875 110.05859375 C-129.61909393 109.17376816 -129.30850037 108.28894257 -128.98849487 107.37730408 C-125.51724124 97.54876671 -121.83067216 87.80449299 -118.125 78.0625 C-117.39434759 76.13592406 -116.66396608 74.20924537 -115.93383789 72.2824707 C-114.41052955 68.26311966 -112.88605743 64.24421284 -111.36083984 60.22558594 C-107.75700123 50.72658732 -104.16987295 41.22127227 -100.58123779 31.71652222 C-98.76180544 26.8980218 -96.94142605 22.07987924 -95.12109375 17.26171875 C-94.51098163 15.64673029 -93.90087369 14.03174025 -93.29077148 12.41674805 C-92.86481689 11.28922119 -92.4388623 10.16169434 -92 9 C-77.53301417 7.05708246 -63.05746488 5.26454236 -48.54541016 3.69238281 C-45.60393545 3.37271076 -42.66331113 3.04586804 -39.72265625 2.71875 C-26.52296084 1.26956944 -13.29633792 -0.11530838 0 0 Z " fill="#16ACF5" transform="translate(642,405)"/>
<path d="M0 0 C11.33602885 -0.42280112 22.32982555 0.8956827 33.5625 2.25 C35.49697392 2.47762733 37.43154583 2.70442332 39.36621094 2.93041992 C43.30645937 3.39099151 47.24633981 3.85454739 51.18603516 4.31982422 C59.24282144 5.26713831 67.30548599 6.16078685 75.36886597 7.04992676 C77.72328899 7.30955451 80.07760369 7.57014314 82.43188477 7.83105469 C85.95451414 8.22138951 89.47722692 8.61096389 93 9 C96.10826812 17.35264434 99.21198255 25.70697562 102.3125 34.0625 C102.77162781 35.29971802 103.23075562 36.53693604 103.70379639 37.81164551 C109.37845703 53.10941471 114.99509593 68.42084976 120.37329102 83.82543945 C122.45808905 89.76671509 124.61763426 95.66844273 126.9140625 101.53125 C127.38956543 102.74651367 127.86506836 103.96177734 128.35498047 105.21386719 C129.25871847 107.50468644 130.17126138 109.79205956 131.09423828 112.07519531 C131.4911084 113.07647461 131.88797852 114.07775391 132.296875 115.109375 C132.65104492 115.98561523 133.00521484 116.86185547 133.37011719 117.76464844 C134 120 134 120 133 123 C132.38125 122.36384766 132.38125 122.36384766 131.75 121.71484375 C128.75656441 118.67463573 125.7360651 115.71938053 122.5 112.9375 C118.44065287 109.43887981 114.53349701 105.7898517 110.625 102.125 C105.61631076 97.43069968 100.57533074 92.78209498 95.45703125 88.20703125 C92.09857374 85.19029279 88.77723198 82.13357193 85.45361328 79.07861328 C82.38378778 76.25994641 79.2946734 73.46489049 76.1875 70.6875 C71.23756751 66.24770548 66.38799212 61.70430864 61.53466797 57.15966797 C57.21989591 53.12446605 52.861672 49.14418111 48.45703125 45.20703125 C45.61941848 42.65814219 42.80823505 40.08112775 40 37.5 C36.35077534 34.14701809 32.68830344 30.81001591 29 27.5 C24.80013805 23.73089312 20.63477284 19.92531391 16.48291016 16.10351562 C12.35476449 12.30856551 8.17002815 8.5800895 3.9609375 4.875 C2 3 2 3 0 0 Z " fill="#16ACF5" transform="translate(356,405)"/>
<path d="M0 0 C-0.64066406 0.6290625 -1.28132812 1.258125 -1.94140625 1.90625 C-6.5394452 6.45632133 -11.01975968 11.03446211 -15.23046875 15.9453125 C-18.74679965 20.02829275 -22.38945428 24.00043925 -26 28 C-27.50028679 29.66640851 -29.00028872 31.33307353 -30.5 33 C-33.5 36.33333333 -36.5 39.66666667 -39.5 43 C-40.23992187 43.82242188 -40.97984375 44.64484375 -41.7421875 45.4921875 C-43.26708244 47.18592894 -44.79315402 48.87861169 -46.3203125 50.5703125 C-50.38907175 55.08042869 -54.42932601 59.6093413 -58.39453125 64.2109375 C-61.96893341 68.19409124 -65.14091906 70.8212 -69.9609375 73.25 C-70.53867416 73.54437958 -71.11641083 73.83875916 -71.71165466 74.14205933 C-72.95086068 74.77275093 -74.19177836 75.40008875 -75.43423462 76.02435303 C-78.7471426 77.68979321 -82.04663581 79.38146751 -85.34765625 81.0703125 C-86.00914169 81.40797638 -86.67062714 81.74564026 -87.35215759 82.09353638 C-92.89118434 84.9271249 -98.36411501 87.87075033 -103.8125 90.875 C-112.52437034 95.65361013 -121.24129964 100.42250154 -129.99252319 105.12872314 C-131.44961433 105.91454956 -132.90473932 106.70403318 -134.3578186 107.49725342 C-136.39372818 108.60795204 -138.43610355 109.70574382 -140.48046875 110.80078125 C-141.09505951 111.1396788 -141.70965027 111.47857635 -142.34286499 111.82774353 C-143.85647427 112.62971937 -145.42581375 113.32463644 -147 114 C-147.99 113.67 -148.98 113.34 -150 113 C-149.52433594 111.91332031 -149.04867188 110.82664062 -148.55859375 109.70703125 C-142.50775932 95.77648805 -136.79792992 81.71695391 -131.14233398 67.62231445 C-130.66664726 66.44079803 -130.66664726 66.44079803 -130.18135071 65.2354126 C-129.58438566 63.75259185 -128.98942712 62.26896103 -128.39689636 60.78436279 C-127.61643892 58.847928 -126.81184979 56.92344038 -126 55 C-125.55108398 53.90316895 -125.10216797 52.80633789 -124.63964844 51.67626953 C-122.6079609 48.36010533 -121.09934862 47.65195864 -117.5078125 46.23828125 C-116.35063721 45.76890137 -115.19346191 45.29952148 -114.0012207 44.81591797 C-112.70916466 44.31473347 -111.41709045 43.81359579 -110.125 43.3125 C-108.76362088 42.76684041 -107.40321339 42.21875152 -106.04370117 41.66845703 C-103.82338555 40.76993481 -101.60254073 39.87303333 -99.37876892 38.98309326 C-93.19215745 36.5037611 -87.05007974 33.92735118 -80.91796875 31.31640625 C-79.96927414 30.91255203 -79.02057953 30.50869781 -78.0431366 30.09260559 C-76.10683271 29.26800428 -74.17058934 28.44326086 -72.23440552 27.61837769 C-57.5178237 21.35593377 -42.77242608 15.21225409 -27.84716797 9.46337891 C-20.96741456 6.80827917 -14.18321672 4.0076182 -7.5222168 0.83886719 C-3.31575354 -1.10525118 -3.31575354 -1.10525118 0 0 Z " fill="#16ADF6" transform="translate(489,539)"/>
<path d="M0 0 C6.18194159 -0.35518679 11.38224 0.96230552 17.3125 2.625 C25.88131992 4.94552009 34.46858195 7.09326442 43.125 9.0625 C44.77363037 9.43797974 44.77363037 9.43797974 46.45556641 9.82104492 C48.62382622 10.31476724 50.79211968 10.80834179 52.96044922 11.30175781 C57.37692863 12.3163065 61.78209599 13.37609324 66.1875 14.4375 C75.17116387 16.5928674 84.17671001 18.64922663 93.1875 20.6875 C93.8513974 20.83806854 94.5152948 20.98863708 95.1993103 21.14376831 C102.19152089 22.72823844 109.16511 24.28667345 116.2355957 25.48364258 C116.81784912 25.65404053 117.40010254 25.82443848 118 26 C118.495 26.99 118.495 26.99 119 28 C118.36312256 28.35602295 117.72624512 28.7120459 117.07006836 29.07885742 C105.57414578 35.5068288 94.08390569 41.94371463 82.625 48.4375 C72.93887402 53.92528941 63.21062316 59.33524332 53.47387695 64.73242188 C45.613089 69.09333544 37.78103618 73.49821752 30 78 C27.84876103 74.77314155 26.57489903 71.51973021 25.234375 67.9140625 C24.82896988 66.83785141 24.82896988 66.83785141 24.41537476 65.73989868 C23.5233691 63.36958201 22.63667181 60.99731651 21.75 58.625 C21.1317255 56.9786992 20.5130679 55.33254222 19.89404297 53.68652344 C18.92734069 51.1155958 17.96102595 48.54452733 16.9961853 45.97290039 C14.66507961 39.76044595 12.31757302 33.55437385 9.9609375 27.3515625 C9.31151857 25.64111513 8.66210443 23.93066594 8.01269531 22.22021484 C7.07077062 19.7395952 6.12847045 17.25912181 5.18493652 14.77911377 C4.31187215 12.48352551 3.44085753 10.1871696 2.5703125 7.890625 C2.30850189 7.20384674 2.04669128 6.51706848 1.77694702 5.80947876 C0 1.11391809 0 1.11391809 0 0 Z " fill="#199BDA" transform="translate(235,376)"/>
<path d="M0 0 C2.65349989 2.50911629 3.74757677 4.45965572 4.9375 7.9375 C5.27652344 8.91332031 5.61554688 9.88914062 5.96484375 10.89453125 C7.29410248 14.88230743 8.60376313 18.87614629 9.875 22.8828125 C10.79501369 25.4320171 11.8056954 27.8341307 12.92578125 30.296875 C14.96853592 34.82301549 16.60574197 39.42156628 18.1875 44.125 C22.10277681 55.5559847 26.52673461 66.77789209 31 78 C30.34 78 29.68 78 29 78 C28.73823975 78.58394531 28.47647949 79.16789063 28.20678711 79.76953125 C26.9314567 82.12668654 25.54355179 83.75667432 23.69140625 85.6875 C23.03197021 86.38045166 22.37253418 87.07340332 21.69311523 87.78735352 C20.99001221 88.51752686 20.28690918 89.2477002 19.5625 90 C18.10618981 91.52939487 16.6504631 93.05934554 15.1953125 94.58984375 C14.48020508 95.33991699 13.76509766 96.08999023 13.02832031 96.86279297 C6.78970541 103.43631667 0.69103315 110.14175399 -5.2421875 116.9921875 C-8.11140764 120.2694745 -11.05135327 123.48295429 -13.984375 126.703125 C-16.01793563 128.9293236 -16.01793563 128.9293236 -17.578125 131.296875 C-18.04734375 131.85890625 -18.5165625 132.4209375 -19 133 C-19.99 133 -20.98 133 -22 133 C-20.90522148 122.62289721 -19.73340118 112.29340703 -18 102 C-17.85272461 101.12053711 -17.70544922 100.24107422 -17.55371094 99.33496094 C-17.04085562 96.28492707 -16.52156763 93.23605559 -16 90.1875 C-15.83387207 89.20821533 -15.66774414 88.22893066 -15.49658203 87.2199707 C-15.25077393 85.80204224 -15.25077393 85.80204224 -15 84.35546875 C-14.855625 83.51653076 -14.71125 82.67759277 -14.5625 81.81323242 C-14.12147693 79.60754284 -13.59397445 77.41911822 -13.03442383 75.24047852 C-11.9055723 70.79593954 -11.15835391 66.32473532 -10.44921875 61.796875 C-10.24043594 60.49412376 -10.24043594 60.49412376 -10.0274353 59.16505432 C-9.73094887 57.31449082 -9.43587705 55.4637002 -9.14212036 53.61270142 C-8.37643477 48.79125168 -7.59920488 43.97167538 -6.8203125 39.15234375 C-6.66613358 38.19809006 -6.51195465 37.24383636 -6.35310364 36.26066589 C-4.38677601 24.1466704 -2.22405397 12.06919955 0 0 Z " fill="#16ACF5" transform="translate(427,610)"/>
<path d="M0 0 C2.71742357 3.26020921 4.1881512 6.55929347 5.7421875 10.49609375 C5.99243683 11.12548355 6.24268616 11.75487335 6.5005188 12.40333557 C7.29771851 14.41252007 8.08640848 16.42492355 8.875 18.4375 C9.39659253 19.75477238 9.9187235 21.0718317 10.44140625 22.38867188 C13.03181379 28.93041313 13.03181379 28.93041313 14.11915588 31.76426697 C14.78535112 33.45518442 15.48453635 35.13315396 16.19908142 36.80421448 C19.78905997 45.48434799 21.51229674 54.00606728 22.89453125 63.22265625 C23.13283888 64.74167452 23.37233887 66.26050616 23.61296082 67.77915955 C24.10959878 70.93182254 24.59711746 74.08569595 25.0769043 77.2409668 C25.69125623 81.28112561 26.3209381 85.31869628 26.95639515 89.35558414 C27.56544474 93.22721647 28.16815696 97.09982527 28.76953125 100.97265625 C28.88375742 101.70632982 28.99798359 102.4400034 29.11567116 103.1959095 C29.43707969 105.26950119 29.7541045 107.34371128 30.06958008 109.41821289 C30.24991287 110.59589737 30.43024567 111.77358185 30.61604309 112.98695374 C31 116 31 116 31 120 C27.7091012 118.90303373 27.03203283 118.15198144 24.875 115.5625 C22.16899725 112.37328247 19.42934885 109.22841403 16.625 106.125 C15.86445312 105.28195312 15.10390625 104.43890625 14.3203125 103.5703125 C13.55460938 102.72210937 12.78890625 101.87390625 12 101 C10.49971321 99.33359149 8.99971128 97.66692647 7.5 96 C6.38625 94.7625 6.38625 94.7625 5.25 93.5 C-1.5 86 -1.5 86 -3.74609375 83.50390625 C-5.25854015 81.82370149 -6.77156859 80.14402049 -8.28515625 78.46484375 C-9.78901984 76.7958905 -11.28403145 75.118913 -12.76953125 73.43359375 C-14.97369738 70.96372948 -14.97369738 70.96372948 -17.44921875 68.72265625 C-18.58810547 67.62244141 -18.58810547 67.62244141 -19.75 66.5 C-20.79414062 65.55640625 -20.79414062 65.55640625 -21.859375 64.59375 C-24.72628218 58.07448162 -18.29158089 47.25061352 -15.83984375 40.91796875 C-15.44930313 39.90076248 -15.05876251 38.88355621 -14.65638733 37.83552551 C-13.42017289 34.61819127 -12.17888602 31.40284185 -10.9375 28.1875 C-10.10058376 26.0111937 -9.26399225 23.83476249 -8.42773438 21.65820312 C-6.89768936 17.67918272 -5.36665487 13.70055151 -3.83178711 9.72338867 C-3.52550888 8.92970383 -3.21923065 8.13601898 -2.90367126 7.31828308 C-1.95043941 4.872857 -0.97818983 2.4355381 0 0 Z " fill="#16ABF4" transform="translate(564,626)"/>
<path d="M0 0 C7.05753749 -0.58732577 7.05753749 -0.58732577 10.3828125 1.68359375 C12.17578125 3.51171875 12.17578125 3.51171875 13.79296875 5.484375 C15.33332889 7.50873196 15.33332889 7.50873196 18.30078125 8.94921875 C20.30078125 11.26171875 20.30078125 11.26171875 20.4465332 13.53466797 C19.7963941 21.94101709 17.83243275 29.60115026 15.18481445 37.56420898 C14.48496672 39.70937843 13.85191659 41.86812233 13.21679688 44.03320312 C10.07774485 53.96562306 10.07774485 53.96562306 5.65649414 57.19042969 C2.56833676 58.49987082 -0.45703613 59.40911095 -3.69921875 60.26171875 C-5.71469119 61.00245623 -7.72403109 61.76011486 -9.7265625 62.53515625 C-11.69526183 63.23946981 -13.66531582 63.94000852 -15.63671875 64.63671875 C-17.1381543 65.18779297 -17.1381543 65.18779297 -18.66992188 65.75 C-19.63736328 66.09160156 -20.60480469 66.43320312 -21.6015625 66.78515625 C-22.46257568 67.09372559 -23.32358887 67.40229492 -24.21069336 67.72021484 C-27.13549494 68.35665259 -28.86960089 68.22644752 -31.69921875 67.26171875 C-34.0864998 65.00978768 -35.75995394 62.2379156 -37.57421875 59.51171875 C-38.0846875 58.795 -38.59515625 58.07828125 -39.12109375 57.33984375 C-42.65619877 52.14228393 -42.65619877 52.14228393 -42.82421875 48.703125 C-41.19424569 45.16585708 -39.09268522 42.10647023 -36.82421875 38.94921875 C-35.81877764 37.51969494 -34.81357607 36.09000263 -33.80859375 34.66015625 C-33.29232422 33.93151367 -32.77605469 33.20287109 -32.24414062 32.45214844 C-30.28799372 29.67867341 -28.36618741 26.88268787 -26.44995117 24.08154297 C-25.53520306 22.74683862 -24.61610804 21.41510275 -23.69262695 20.08642578 C-21.48094384 16.90087398 -19.32977301 13.70049577 -17.2890625 10.40234375 C-11.962907 1.92521839 -11.962907 1.92521839 -8.75 0.23828125 C-5.81015033 -0.20299436 -2.96551413 0.287539 0 0 Z " fill="#0661AA" transform="translate(667.69921875,429.73828125)"/>
<path d="M0 0 C-0.64470049 2.74642455 -1.44323563 5.35582054 -2.42700195 7.99902344 C-2.71432693 8.77372986 -3.00165192 9.54843628 -3.29768372 10.34661865 C-3.6080809 11.17582825 -3.91847809 12.00503784 -4.23828125 12.859375 C-4.56032028 13.72258362 -4.88235931 14.58579224 -5.2141571 15.47515869 C-5.89641402 17.30125531 -6.57985894 19.12690845 -7.2644043 20.95214844 C-8.30281489 23.72414596 -9.33419821 26.4986901 -10.36523438 29.2734375 C-11.03081899 31.05224467 -11.69682142 32.83089556 -12.36328125 34.609375 C-12.66760574 35.43048767 -12.97193024 36.25160034 -13.28547668 37.09759521 C-15.22713727 42.24851875 -17.46229766 47.11402303 -20 52 C-24.58582768 52.27913734 -29.16705382 52.52642926 -33.7578125 52.70703125 C-37.02059815 52.84808929 -40.14982358 53.14658392 -43.3671875 53.69921875 C-47.5762251 54.29617725 -50.87320757 54.30775584 -55 53 C-59.95255904 48.71590917 -63.23361941 42.94194596 -66.55566406 37.37353516 C-68.63552805 33.95561127 -70.97197825 30.74191665 -73.3125 27.5 C-77 22.2567325 -77 22.2567325 -77 20 C-67.81411159 17.08307934 -58.57233692 14.50468444 -49.23828125 12.109375 C-47.87154715 11.75656217 -46.50486418 11.40355123 -45.13822937 11.050354 C-42.30594302 10.31907646 -39.47313056 9.58988627 -36.63989258 8.86230469 C-33.00630802 7.92905021 -29.37402332 6.99084347 -25.74209309 6.05117416 C-22.934808 5.3253536 -20.12692167 4.60188269 -17.31883812 3.87915802 C-15.97780073 3.53375226 -14.63693949 3.18766187 -13.29625893 2.84087372 C-11.43550102 2.35997767 -9.57385088 1.88253793 -7.7121582 1.40527344 C-6.65438675 1.13309998 -5.5966153 0.86092651 -4.50679016 0.58050537 C-2 0 -2 0 0 0 Z " fill="#199BDA" transform="translate(788,373)"/>
<path d="M0 0 C6.92378622 1.2649275 13.61875995 2.93939876 20.35546875 4.96875 C21.30134354 5.24972534 22.24721832 5.53070068 23.22175598 5.82019043 C26.21159892 6.70928915 29.19957809 7.60446918 32.1875 8.5 C34.20234942 9.1006783 36.21732242 9.70094225 38.23242188 10.30078125 C41.07371145 11.14656867 43.91481932 11.9929085 46.75492859 12.84265137 C51.49471406 14.26028986 56.23971662 15.65272713 61 17 C59.65669512 21.02991465 58.08355165 21.27135623 54.33203125 23.15234375 C53.45905899 23.59603554 53.45905899 23.59603554 52.56845093 24.0486908 C51.31178692 24.68630404 50.05290064 25.31955213 48.79208374 25.94891357 C45.43717424 27.62432539 42.09879986 29.33220144 38.7578125 31.03515625 C38.08705185 31.37591187 37.4162912 31.71666748 36.72520447 32.06774902 C31.15594666 34.90235347 25.65856455 37.85513304 20.1875 40.875 C11.47586165 45.65402281 2.75869491 50.42250447 -5.99252319 55.12872314 C-7.44961433 55.91454956 -8.90473932 56.70403318 -10.3578186 57.49725342 C-12.39372818 58.60795204 -14.43610355 59.70574382 -16.48046875 60.80078125 C-17.09505951 61.1396788 -17.70965027 61.47857635 -18.34286499 61.82774353 C-19.85647427 62.62971937 -21.42581375 63.32463644 -23 64 C-23.99 63.67 -24.98 63.34 -26 63 C-25.52433594 61.91332031 -25.04867188 60.82664062 -24.55859375 59.70703125 C-15.98370228 39.96820596 -7.98006716 19.98537052 0 0 Z " fill="#33CFFE" transform="translate(365,589)"/>
<path d="M0 0 C0.33851178 2.68693722 0.670936 5.37440289 1 8.0625 C1.09539062 8.81466797 1.19078125 9.56683594 1.2890625 10.34179688 C2.78312034 22.6677741 2.78312034 22.6677741 0.33984375 26.82421875 C-0.84931641 28.24154297 -0.84931641 28.24154297 -2.0625 29.6875 C-2.99004989 30.82929466 -3.91571038 31.97262585 -4.83984375 33.1171875 C-5.34757324 33.7369043 -5.85530273 34.35662109 -6.37841797 34.99511719 C-17.4612271 48.69762073 -27.29242534 63.23606955 -36.97412109 77.94238281 C-40.37520991 83.07557592 -43.84120188 88.16412492 -47.3125 93.25 C-47.94091797 94.17280762 -48.56933594 95.09561523 -49.21679688 96.04638672 C-51.74713929 99.75192951 -54.28597001 103.42574424 -57 107 C-62.0261109 106.46323088 -65.62239409 104.05581499 -69.8125 101.4375 C-70.85180664 100.80038086 -70.85180664 100.80038086 -71.91210938 100.15039062 C-73.61216951 99.10690544 -75.30665476 98.05434704 -77 97 C-75.70234874 94.21545667 -74.27315368 91.92758387 -72.3125 89.56640625 C-71.78382324 88.92429199 -71.25514648 88.28217773 -70.71044922 87.62060547 C-70.14600098 86.94143066 -69.58155273 86.26225586 -69 85.5625 C-64.03635174 79.52474182 -59.19947623 73.42047694 -54.45703125 67.20703125 C-50.49080767 62.01404178 -46.43119905 56.89379039 -42.38671875 51.76171875 C-41.01582318 50.02010212 -39.64800009 48.27612115 -38.28125 46.53125 C-33.110186 39.93230631 -27.89497719 33.37225563 -22.63891602 26.84082031 C-18.10801986 21.18546282 -13.71499715 15.42804007 -9.36376953 9.63354492 C-2.07928251 0 -2.07928251 0 0 0 Z " fill="#16ACF5" transform="translate(722,307)"/>
<path d="M0 0 C3.59245252 1.36795607 6.93814012 2.96110266 10.31640625 4.79296875 C11.3230835 5.33791992 12.32976074 5.88287109 13.36694336 6.44433594 C14.42147705 7.01958008 15.47601074 7.59482422 16.5625 8.1875 C17.63701416 8.77176758 18.71152832 9.35603516 19.81860352 9.95800781 C39.92834198 20.92834198 39.92834198 20.92834198 42 23 C42.1810598 24.50544528 42.29830783 26.01864198 42.38891602 27.53222656 C42.44890274 28.49702942 42.50888947 29.46183228 42.57069397 30.45587158 C42.63115402 31.50684021 42.69161407 32.55780884 42.75390625 33.640625 C42.85166603 35.25212433 42.85166603 35.25212433 42.95140076 36.8961792 C43.08883897 39.17593575 43.22403021 41.45582868 43.35717773 43.73583984 C43.56082495 47.22133101 43.77099132 50.70637943 43.98242188 54.19140625 C44.11496774 56.40362284 44.24714126 58.61586177 44.37890625 60.828125 C44.44139053 61.8709967 44.50387482 62.91386841 44.56825256 63.98834229 C44.65350441 65.45445953 44.65350441 65.45445953 44.74047852 66.95019531 C44.79075699 67.80655579 44.84103546 68.66291626 44.89283752 69.54522705 C45.00146192 72.03348826 45.0184916 74.50970573 45 77 C38.06302271 76.02306192 31.8013745 73.59012895 25.25 71.1875 C24.00605469 70.74857422 22.76210938 70.30964844 21.48046875 69.85742188 C20.29582031 69.42365234 19.11117187 68.98988281 17.890625 68.54296875 C16.26688965 67.9555188 16.26688965 67.9555188 14.61035156 67.35620117 C11.56934692 65.77625534 11.23683422 65.10311722 10 62 C9.55732059 60.07216287 9.18294122 58.12812162 8.85498047 56.17749023 C8.65492401 55.00625107 8.45486755 53.8350119 8.24874878 52.62828064 C7.93612595 50.73753563 7.93612595 50.73753563 7.6171875 48.80859375 C7.39805695 47.51180191 7.17892639 46.21501007 6.95315552 44.87892151 C6.49038497 42.13843064 6.03185578 39.39727664 5.57666016 36.65551758 C4.9931899 33.14165758 4.40195019 29.62916323 3.80788994 26.11707973 C3.24133988 22.76474937 2.67925546 19.41167869 2.1171875 16.05859375 C1.90472382 14.79607285 1.69226013 13.53355194 1.47335815 12.23277283 C1.27960602 11.06468582 1.08585388 9.89659882 0.88623047 8.69311523 C0.71461395 7.66371323 0.54299744 6.63431122 0.36618042 5.57371521 C0 3 0 3 0 0 Z " fill="#0D7FC8" transform="translate(585,616)"/>
<path d="M0 0 C0.66 0 1.32 0 2 0 C4.98427062 14.40060791 7.7416771 28.83312155 10.3125 43.3125 C10.44714661 44.06432556 10.58179321 44.81615112 10.72052002 45.59075928 C11.1052786 47.74344205 11.48511477 49.8969318 11.86328125 52.05078125 C12.08282471 53.29512939 12.30236816 54.53947754 12.52856445 55.8215332 C13 59 13 59 13 63 C7.52751108 63.29153526 2.05470887 63.57595475 -3.41845703 63.85449219 C-5.27044027 63.94966222 -7.12233396 64.04659536 -8.97412109 64.14550781 C-21.99581215 64.83943153 -34.96009659 65.12697769 -48 65 C-46.48887969 60.99919248 -44.78679421 58.26453036 -42 55 C-37.35996818 49.45549288 -32.92623075 43.77710952 -28.54589844 38.02734375 C-26.76571123 35.69274575 -24.98044915 33.36206545 -23.1953125 31.03125 C-21.81735731 29.22943506 -20.43976008 27.42734632 -19.0625 25.625 C-18.37712158 24.72837646 -17.69174316 23.83175293 -16.9855957 22.90795898 C-13.81140246 18.74204278 -10.66275824 14.56341011 -7.59765625 10.31640625 C-7.09032959 9.61370605 -6.58300293 8.91100586 -6.06030273 8.18701172 C-5.12528024 6.88443743 -4.19609036 5.57765017 -3.27368164 4.26611328 C-2.22969896 2.80903799 -1.12132163 1.39842985 0 0 Z " fill="#16ADF6" transform="translate(766,285)"/>
<path d="M0 0 C8.15071194 2.350827 16.17014553 5.04429971 24.1875 7.8125 C24.82497162 8.03210388 25.46244324 8.25170776 26.11923218 8.47796631 C35.52478997 11.72277068 44.84053132 15.10841227 54 19 C52.73868422 22.45319061 51.30231336 25.21835762 49.09375 28.15234375 C48.51987549 28.9215918 47.94600098 29.69083984 47.35473633 30.48339844 C46.74267334 31.29325195 46.13061035 32.10310547 45.5 32.9375 C44.22183237 34.64912465 42.94449336 36.36136839 41.66796875 38.07421875 C41.04067871 38.91388184 40.41338867 39.75354492 39.76708984 40.61865234 C37.4066365 43.79962249 35.10152009 47.01741796 32.8125 50.25 C30.24364412 53.87552189 27.65371559 57.48195846 25.01171875 61.0546875 C24.50987061 61.73370117 24.00802246 62.41271484 23.4909668 63.11230469 C22.52249882 64.41966509 21.55145018 65.72511916 20.57739258 67.02832031 C18.43913078 69.9149934 16.44490427 72.69970729 15 76 C14.01 76 13.02 76 12 76 C11.89168854 75.27496277 11.78337708 74.54992554 11.67178345 73.80291748 C10.64328071 66.91934799 9.61379984 60.03592539 8.58326149 53.15266037 C8.0536792 49.61519838 7.52445529 46.07768361 6.99609375 42.54003906 C6.48474161 39.11637615 5.97239151 35.69286385 5.45939255 32.26944733 C5.17185176 30.34890111 4.88530473 28.42820619 4.5987854 26.50750732 C2.78439774 13.15984386 2.78439774 13.15984386 0 0 Z " fill="#0C7FC8" transform="translate(592,686)"/>
<path d="M0 0 C1.3165248 0.54689586 2.6352857 1.08843509 3.95605469 1.625 C8.05026097 3.29394143 12.11968524 5.01792322 16.1875 6.75 C18.27332062 7.6345134 20.3596056 8.51791208 22.44636536 9.40020752 C24.31042337 10.18887353 26.17319637 10.98057474 28.03588867 11.77246094 C29.99657583 12.58444801 31.98673017 13.32891006 34 14 C34 14.99 34 15.98 34 17 C26.12045019 19.26809419 18.23667388 21.52056454 10.34701157 23.75319862 C6.68368959 24.79038271 3.02206082 25.8328919 -0.63623047 26.88769531 C-4.16643941 27.90535505 -7.70039145 28.90886152 -11.23738861 29.90266037 C-12.58642355 30.28437822 -13.93402969 30.6711832 -15.28012848 31.06312943 C-17.16499802 31.61101291 -19.05555518 32.13921376 -20.94628906 32.66650391 C-22.02106506 32.9729483 -23.09584106 33.2793927 -24.20318604 33.59512329 C-27.32851365 34.0475568 -28.43132188 33.75228219 -31 32 C-32.62817383 30.52294922 -32.62817383 30.52294922 -34.20703125 28.8046875 C-34.79073486 28.1746582 -35.37443848 27.54462891 -35.97583008 26.89550781 C-36.88498169 25.89535645 -36.88498169 25.89535645 -37.8125 24.875 C-38.43471436 24.19791992 -39.05692871 23.52083984 -39.69799805 22.82324219 C-41.47183946 20.88797354 -43.23691964 18.94506896 -45 17 C-45.804375 16.12085938 -46.60875 15.24171875 -47.4375 14.3359375 C-51.86216887 9.41349338 -51.86216887 9.41349338 -53 6 C-53.66 6 -54.32 6 -55 6 C-55 5.34 -55 4.68 -55 4 C-52.19065392 3.29329511 -49.38053768 2.58992071 -46.56933594 1.890625 C-44.21673588 1.3036014 -41.86576538 0.71000225 -39.51660156 0.109375 C-35.89483265 -0.8018121 -32.26251523 -1.65406623 -28.625 -2.5 C-27.41328125 -2.81453125 -26.2015625 -3.1290625 -24.953125 -3.453125 C-15.16473754 -5.66542579 -9.02916331 -4.05301531 0 0 Z " fill="#18AEF6" transform="translate(611,576)"/>
<path d="M0 0 C-2.87206084 15.69350773 -5.80941277 31.36790503 -9 47 C-14.26116031 49.08489471 -19.19148103 49.50384984 -24.7734375 49.8515625 C-26.1590538 49.94719986 -26.1590538 49.94719986 -27.57266235 50.04476929 C-30.50633053 50.24556175 -33.44058712 50.43543471 -36.375 50.625 C-38.37114257 50.7596951 -40.36723711 50.89510402 -42.36328125 51.03125 C-47.2416701 51.36243445 -52.12061589 51.68383162 -57 52 C-55.5640235 48.98576039 -54.34096843 47.18596761 -51.75 45.0625 C-47.1173164 41.14838959 -42.69829039 37.03127156 -38.27636719 32.88305664 C-35.26399191 30.06764436 -32.21977946 27.30408573 -29.10546875 24.6015625 C-24.73742027 20.80097079 -20.5192775 16.85245361 -16.3125 12.875 C-15.57966797 12.18535156 -14.84683594 11.49570312 -14.09179688 10.78515625 C-13.37701172 10.11097656 -12.66222656 9.43679688 -11.92578125 8.7421875 C-11.24596191 8.10120117 -10.56614258 7.46021484 -9.86572266 6.79980469 C-8.25011539 5.24127854 -6.70596697 3.64182781 -5.16796875 2.0078125 C-3 0 -3 0 0 0 Z " fill="#0561AA" transform="translate(623,477)"/>
<path d="M0 0 C0.66715974 2.18503243 1.22204527 4.40459994 1.7265625 6.6328125 C1.87910492 7.30287323 2.03164734 7.97293396 2.18881226 8.66329956 C2.51053015 10.08645657 2.82800582 11.5105781 3.14160156 12.93554688 C3.61901948 15.09791247 4.1130997 17.25595697 4.609375 19.4140625 C4.92028904 20.79925102 5.23021547 22.18466165 5.5390625 23.5703125 C5.81959473 24.82602051 6.10012695 26.08172852 6.38916016 27.37548828 C7.91839109 36.44941411 7.91839109 36.44941411 5.3203125 40.8359375 C4.23363281 42.09277344 4.23363281 42.09277344 3.125 43.375 C2.40570312 44.22835937 1.68640625 45.08171875 0.9453125 45.9609375 C-1 48 -1 48 -3 49 C-4.97119141 48.47094727 -4.97119141 48.47094727 -7.3515625 47.56640625 C-8.20234375 47.24736328 -9.053125 46.92832031 -9.9296875 46.59960938 C-10.81914063 46.25736328 -11.70859375 45.91511719 -12.625 45.5625 C-13.5221875 45.22412109 -14.419375 44.88574219 -15.34375 44.53710938 C-17.56516661 43.69817012 -19.78365271 42.8522225 -22 42 C-22.33810356 37.50034522 -22.66962609 33.00022839 -23 28.5 C-23.09539063 27.2315625 -23.19078125 25.963125 -23.2890625 24.65625 C-23.74375792 18.4204271 -24.12631546 12.25261544 -24 6 C-20.37885457 4.80051225 -16.7525494 3.61746495 -13.125 2.4375 C-12.09246094 2.09525391 -11.05992187 1.75300781 -9.99609375 1.40039062 C-9.00996094 1.08134766 -8.02382813 0.76230469 -7.0078125 0.43359375 C-6.09660645 0.13509521 -5.18540039 -0.16340332 -4.24658203 -0.47094727 C-2 -1 -2 -1 0 0 Z " fill="#0C7EC8" transform="translate(655,655)"/>
<path d="M0 0 C4.67147996 -0.07537259 9.32892729 -0.04613309 14 0.046875 C15.59162079 5.61754777 16.20674944 10.25789081 16 16.046875 C10.8363332 17.41879715 5.66932851 18.77758447 0.50048828 20.12988281 C-2.08494581 20.80716629 -4.66985569 21.4863101 -7.25439453 22.16699219 C-11.1662215 23.19660477 -15.07985919 24.21911781 -18.99447632 25.23806763 C-20.57855544 25.65150608 -22.1620769 26.06708725 -23.74502563 26.48483276 C-26.00303944 27.08027328 -28.26295811 27.66790585 -30.5234375 28.25390625 C-31.20302017 28.43492889 -31.88260284 28.61595154 -32.58277893 28.80245972 C-36.13388663 29.71411841 -39.33193468 30.24908999 -43 30.046875 C-42.0792663 20.20339469 -37.08117946 8.95755555 -30 2.046875 C-23.4562808 -1.00661458 -16.16898119 -0.49328443 -9.109375 -0.11132812 C-6.06100057 0.04377133 -3.05130674 0.0504515 0 0 Z " fill="#16ACF5" transform="translate(757,353.953125)"/>
<path d="M0 0 C7.12866898 2.27731673 14.02000296 4.96226609 20.9375 7.8125 C22.65610229 8.51632812 22.65610229 8.51632812 24.40942383 9.234375 C30.52233176 11.74023198 36.62986089 14.25911899 42.7374115 16.77799988 C44.27542511 17.41230741 45.81348044 18.04651376 47.35157776 18.68061829 C51.09390258 20.2235321 54.83560759 21.76790618 58.57592773 23.31567383 C59.96076191 23.88756362 61.34560835 24.45942372 62.73046875 25.03125 C63.94114014 25.53205078 65.15181152 26.03285156 66.39916992 26.54882812 C70.24453492 28.09855011 74.11278646 29.55892324 78 31 C78 31.66 78 32.32 78 33 C72.68244841 34.1702955 67.36228631 35.32754666 62.03930664 36.47290039 C60.22961421 36.86419838 58.42068083 37.2590244 56.61254883 37.6574707 C54.01055254 38.2302102 51.40607326 38.79012668 48.80078125 39.34765625 C47.99538406 39.52780777 47.18998688 39.70795929 46.36018372 39.89356995 C42.31762863 40.7454584 39.00818406 41.43212208 35 40 C33.03211181 38.18594378 31.35063502 36.45613283 29.625 34.4375 C29.14240723 33.89174316 28.65981445 33.34598633 28.16259766 32.78369141 C26.76423963 31.19819949 25.38085836 29.60073029 24 28 C22.79170799 26.62496369 21.58338161 25.24995758 20.375 23.875 C19.83746094 23.25496094 19.29992187 22.63492188 18.74609375 21.99609375 C15.9192066 18.76446214 13.02821597 15.59071492 10.1484375 12.40625 C8.24871155 10.27855694 6.39715604 8.12118816 4.5625 5.9375 C2.33611003 3.00970985 2.33611003 3.00970985 0 2 C0 1.34 0 0.68 0 0 Z " fill="#16ADF6" transform="translate(510,538)"/>
<path d="M0 0 C-0.58780461 4.1592562 -1.53968837 7.84205503 -3.03125 11.765625 C-3.42957031 12.82007813 -3.82789063 13.87453125 -4.23828125 14.9609375 C-4.65464844 16.04632813 -5.07101562 17.13171875 -5.5 18.25 C-5.91636719 19.35085938 -6.33273437 20.45171875 -6.76171875 21.5859375 C-9.81624681 29.63249362 -9.81624681 29.63249362 -11 32 C-14.7241184 30.60609158 -18.07213235 28.90828014 -21.5078125 26.91015625 C-22.56887207 26.29551514 -23.62993164 25.68087402 -24.72314453 25.04760742 C-25.84575684 24.39252197 -26.96836914 23.73743652 -28.125 23.0625 C-29.87162673 22.04625121 -31.61865659 21.03069776 -33.36569214 20.01515198 C-34.53939654 19.3326916 -35.71283791 18.64977867 -36.88601685 17.96641541 C-40.55619486 15.83057115 -44.24063159 13.72207272 -47.9375 11.6328125 C-48.82034668 11.13128662 -49.70319336 10.62976074 -50.61279297 10.11303711 C-52.25967161 9.17852551 -53.90964714 8.24944595 -55.56298828 7.32641602 C-57.40839574 6.27356898 -59.21029649 5.14497899 -61 4 C-61 3.34 -61 2.68 -61 2 C-50.84117046 1.23930117 -40.70192683 0.76482156 -30.51904297 0.49731445 C-28.23784765 0.43717965 -25.95682539 0.37223832 -23.67578125 0.30664062 C-15.7830326 0.08597418 -7.89648434 -0.06748216 0 0 Z " fill="#1999D9" transform="translate(781,428)"/>
<path d="M0 0 C0.99 0 1.98 0 3 0 C4.38769531 1.57861328 4.38769531 1.57861328 5.828125 3.8203125 C6.64676025 5.0736438 6.64676025 5.0736438 7.48193359 6.35229492 C8.06539551 7.2672876 8.64885742 8.18228027 9.25 9.125 C10.49593022 11.04131828 11.74337976 12.95664943 12.9921875 14.87109375 C13.6428418 15.87253418 14.29349609 16.87397461 14.96386719 17.90576172 C18.9943824 24.03079168 23.19000664 30.04543902 27.37597656 36.06494141 C28.28428223 37.38437744 28.28428223 37.38437744 29.2109375 38.73046875 C30.01990479 39.89678833 30.01990479 39.89678833 30.84521484 41.08666992 C32 43 32 43 32 45 C27.58965421 45.43214646 23.17885222 45.85919878 18.76757812 46.28173828 C17.27005019 46.42588018 15.77265055 46.57136199 14.27539062 46.71826172 C12.11100907 46.93037111 9.94619679 47.13749923 7.78125 47.34375 C6.48251953 47.46943359 5.18378906 47.59511719 3.84570312 47.72460938 C-0.12999702 48.00930908 -4.01639567 48.04650122 -8 48 C-7.44780597 37.77359731 -5.38969817 27.8404417 -3.4375 17.8125 C-3.10432884 16.08017208 -2.77164268 14.3477508 -2.43945312 12.61523438 C-1.63188828 8.40905938 -0.81777559 4.20420119 0 0 Z " fill="#0561AB" transform="translate(623,483)"/>
<path d="M0 0 C7.11365526 -0.48078498 7.11365526 -0.48078498 10.3515625 1.73046875 C12.14453125 3.55859375 12.14453125 3.55859375 13.76171875 5.53125 C15.30207889 7.55560696 15.30207889 7.55560696 18.26953125 8.99609375 C20.75801203 11.87339965 20.50329616 12.69416049 20.2421875 16.40625 C19.39717318 24.71265363 16.53260886 32.2608757 13.70703125 40.05859375 C13.18032754 41.54510832 12.6549276 43.0320855 12.13085938 44.51953125 C10.85868973 48.12138542 9.56913977 51.7165537 8.26953125 55.30859375 C7.60953125 55.30859375 6.94953125 55.30859375 6.26953125 55.30859375 C3.52433879 48.83986897 1.27549621 42.32462886 -0.703125 35.58203125 C-2.33606512 30.3789749 -4.33845525 25.3240729 -6.30078125 20.23828125 C-6.81901042 18.88671875 -7.33723958 17.53515625 -7.85546875 16.18359375 C-8.11972656 15.50683594 -8.38398437 14.83007812 -8.65625 14.1328125 C-10.14946332 10.21407501 -11.30847929 6.51570078 -11.73046875 2.30859375 C-9.28701423 -0.13486077 -3.36465678 0.38026879 0 0 Z " fill="#0C7EC7" transform="translate(667.73046875,429.69140625)"/>
<path d="M0 0 C0.99 0 1.98 0 3 0 C3.53466228 2.68539415 4.05294683 5.37232628 4.5625 8.0625 C4.71396484 8.81466797 4.86542969 9.56683594 5.02148438 10.34179688 C6.01530486 15.68069298 6.90809967 20.8819907 3.91577148 25.77172852 C2.4916507 27.66722585 0.99129655 29.45941878 -0.5625 31.25 C-1.65942751 32.56484391 -2.75447096 33.88126184 -3.84765625 35.19921875 C-4.38535645 35.84165527 -4.92305664 36.4840918 -5.47705078 37.14599609 C-9.76916091 42.37111381 -13.70420577 47.90848891 -17.3125 53.625 C-19 56 -19 56 -22 57 C-28.43408971 23.58099953 -28.43408971 23.58099953 -22.91699219 14.61474609 C-17.55110071 9.38797032 -11.24993842 5.98300616 -4.38598633 3.0769043 C-1.87883836 2.11457724 -1.87883836 2.11457724 0 0 Z " fill="#16ACF6" transform="translate(749,264)"/>
<path d="M0 0 C-1.65 9.9 -3.3 19.8 -5 30 C-3.68 30.33 -2.36 30.66 -1 31 C-1.41044485 37.57791873 -1.86608597 43.74051886 -4 50 C-7.04189468 47.05028395 -9.96422641 44.01273229 -12.8125 40.875 C-13.41707031 40.21242188 -14.02164063 39.54984375 -14.64453125 38.8671875 C-16 37 -16 37 -16 34 C-22.6 33.67 -29.2 33.34 -36 33 C-33.75294412 27.38236031 -33.75294412 27.38236031 -31.64453125 24.6171875 C-31.19086182 24.01229492 -30.73719238 23.40740234 -30.26977539 22.78417969 C-29.78887451 22.15415039 -29.30797363 21.52412109 -28.8125 20.875 C-25.33680353 16.30068 -22.29421921 11.82126092 -19.5625 6.75 C-16.8981082 2.4041959 -14.729991 1.08033573 -9.8125 -0.25 C-5.87139588 -0.99875919 -3.97766582 -0.99441645 0 0 Z " fill="#199BDA" transform="translate(696,395)"/>
<path d="M0 0 C0.66 0 1.32 0 2 0 C3.19921875 1.40625 3.19921875 1.40625 4.6875 3.5 C8.39826207 8.43192581 12.51992354 12.89175567 16.75 17.375 C17.74326294 18.4278418 17.74326294 18.4278418 18.7565918 19.50195312 C22.04057372 23.03074985 22.04057372 23.03074985 25.53619385 26.34155273 C27.29189301 28.33070578 27.58423846 29.60251156 28.02734375 32.20166016 C28.1776001 33.04749664 28.32785645 33.89333313 28.48266602 34.76480103 C28.63276123 35.68030731 28.78285645 36.5958136 28.9375 37.5390625 C29.1037085 38.49332123 29.26991699 39.44757996 29.44116211 40.43075562 C29.97203039 43.49368979 30.4862935 46.55914564 31 49.625 C31.34524916 51.63560672 31.69159213 53.64602595 32.0390625 55.65625 C32.71636724 59.58254609 33.38640741 63.50997275 34.05078125 67.43847656 C34.65681951 71.01122965 35.277496 74.58072011 35.91796875 78.14746094 C36.05904053 78.93365814 36.2001123 79.71985535 36.34545898 80.52987671 C36.60708126 81.98081854 36.87077572 83.43138893 37.13696289 84.88150024 C37.63400776 87.6407018 38 90.18832768 38 93 C35 92 35 92 33.71273804 89.56686401 C33.28465851 88.48373932 32.85657898 87.40061462 32.41552734 86.28466797 C32.17595306 85.68748459 31.93637878 85.09030121 31.68954468 84.47502136 C30.89426499 82.48483331 30.11516091 80.48871101 29.3359375 78.4921875 C28.77982064 77.09101828 28.22272561 75.69023693 27.66470337 74.28982544 C26.18849258 70.57725044 24.72591414 66.8594465 23.26599121 63.14044189 C21.81445096 59.44974319 20.35004847 55.76416126 18.88671875 52.078125 C16.35390895 45.69338096 13.83642131 39.30274645 11.32676315 32.9088707 C9.61950468 28.56332463 7.89372961 24.22557069 6.15722656 19.89160156 C5.73188629 18.82370392 5.30654602 17.75580627 4.86831665 16.6555481 C4.09054306 14.70329913 3.30782805 12.75300827 2.51913452 10.80514526 C2.18233673 9.95566315 1.84553894 9.10618103 1.49853516 8.23095703 C1.20661285 7.50393585 0.91469055 6.77691467 0.61392212 6.02786255 C0 4 0 4 0 0 Z " fill="#0D7FC9" transform="translate(552,582)"/>
<path d="M0 0 C0.66 0 1.32 0 2 0 C2.40605469 1.16789062 2.81210937 2.33578125 3.23046875 3.5390625 C4.8294862 7.79748857 6.91028385 11.52605821 9.3125 15.375 C9.70622803 16.023479 10.09995605 16.67195801 10.50561523 17.34008789 C12.26442729 20.23128087 14.05670798 23.08586878 15.921875 25.91015625 C20.19057231 32.48598282 20.79723148 36.21661115 19.5 44 C19.2525 44.99 19.2525 44.99 19 46 C12.77411661 45.39789562 6.78500106 44.44432627 0.6875 43.0625 C-0.4890918 42.80823242 -0.4890918 42.80823242 -1.68945312 42.54882812 C-2.82737305 42.29456055 -2.82737305 42.29456055 -3.98828125 42.03515625 C-4.66415283 41.8844165 -5.34002441 41.73367676 -6.03637695 41.57836914 C-8.17912228 40.94724099 -10.03344364 40.05148324 -12 39 C-10.37422039 30.56276441 -7.63145497 22.55436793 -4.875 14.4375 C-4.40192249 13.03334498 -3.92926287 11.6290491 -3.45703125 10.22460938 C-2.30949994 6.81476903 -1.15632848 3.40686863 0 0 Z " fill="#0C80C8" transform="translate(690,450)"/>
<path d="M0 0 C0.66 0 1.32 0 2 0 C2.36351562 1.05316406 2.72703125 2.10632813 3.1015625 3.19140625 C6.13401557 11.91047153 9.34114343 20.50417426 12.8984375 29.0234375 C14 32 14 32 14 35 C11.01344392 35.99551869 8.57730616 36.28782147 5.44921875 36.53515625 C4.35802734 36.62216797 3.26683594 36.70917969 2.14257812 36.79882812 C1.00240234 36.88583984 -0.13777344 36.97285156 -1.3125 37.0625 C-2.44107422 37.15337891 -3.56964844 37.24425781 -4.73242188 37.33789062 C-9.83960622 37.73768787 -14.87432135 38.04904272 -20 38 C-19.39642304 33.71356377 -17.8699806 30.57910947 -15.76171875 26.81640625 C-15.2786602 25.9494236 -15.2786602 25.9494236 -14.7858429 25.06492615 C-14.10561627 23.84708002 -13.42213475 22.63104685 -12.7355957 21.41674805 C-11.69478549 19.57538919 -10.66393856 17.72874296 -9.63476562 15.88085938 C-3.21149479 4.40883326 -3.21149479 4.40883326 0 0 Z " fill="#0562AB" transform="translate(679,500)"/>
<path d="M0 0 C8.79615002 4.15221988 17.1991249 8.9007476 25.61206055 13.77246094 C30.01829246 16.31975624 34.41126441 18.79649826 39 21 C38.41165802 24.13938937 37.50724971 25.90711868 35.3828125 28.27734375 C34.85816406 28.87353516 34.33351563 29.46972656 33.79296875 30.08398438 C33.24253906 30.69564453 32.69210937 31.30730469 32.125 31.9375 C27.85711763 36.67243443 27.85711763 36.67243443 24.3046875 41.94140625 C23.87414062 42.62074219 23.44359375 43.30007813 23 44 C22.01 44 21.02 44 20 44 C16.83115611 37.38478183 13.66705412 30.7673142 10.50585938 24.1484375 C9.09626654 21.20127324 7.68154993 18.25662585 6.265625 15.3125 C5.44776195 13.60424073 4.63004552 11.89591126 3.8125 10.1875 C3.42650635 9.38852295 3.0405127 8.5895459 2.64282227 7.76635742 C0 2.22707494 0 2.22707494 0 0 Z " fill="#0D7FC9" transform="translate(720,442)"/>
<path d="M0 0 C1.45177595 0.49294591 2.9042467 0.98385056 4.35742188 1.47265625 C7.8924451 2.66664423 11.41723198 3.88808892 14.9375 5.125 C14.9375 6.115 14.9375 7.105 14.9375 8.125 C12.84765625 10.10546875 12.84765625 10.10546875 10 12.3125 C5.39390446 15.92733529 1.09982363 19.70120013 -3.08984375 23.7890625 C-5.0625 25.125 -5.0625 25.125 -7.06640625 25.1484375 C-12.36885662 22.42976432 -15.56228175 15.51424203 -18.75 10.625 C-19.24822266 9.87863281 -19.74644531 9.13226562 -20.25976562 8.36328125 C-24.68218572 1.58263714 -24.68218572 1.58263714 -25.0625 -2.875 C-15.97179145 -6.26751023 -8.68612627 -3.05962626 0 0 Z " fill="#33D0FE" transform="translate(644.0625,605.875)"/>
<path d="M0 0 C4 10 8 20 12 30 C12.40879395 30.88792236 12.81758789 31.77584473 13.23876953 32.69067383 C14.0897533 35.27228237 13.93133795 36.48538754 13 39 C9.15687834 36.95901363 5.31583355 34.91418349 1.4765625 32.8659668 C0.17372375 32.17158078 -1.12964989 31.47819725 -2.43359375 30.78588867 C-17.58685721 22.73862261 -17.58685721 22.73862261 -23 19 C-23 18.34 -23 17.68 -23 17 C-21.59321977 15.75185669 -20.12120296 14.5769161 -18.625 13.4375 C-13.8774885 9.75699677 -9.48198988 5.82397754 -5.12890625 1.6875 C-3 0 -3 0 0 0 Z " fill="#31CCFA" transform="translate(665,615)"/>
<path d="M0 0 C1 3 1 3 0.01538086 5.38500977 C-0.49629639 6.31112061 -1.00797363 7.23723145 -1.53515625 8.19140625 C-2.09783203 9.21943359 -2.66050781 10.24746094 -3.24023438 11.30664062 C-3.84158203 12.38107422 -4.44292969 13.45550781 -5.0625 14.5625 C-5.63677734 15.60986328 -6.21105469 16.65722656 -6.80273438 17.73632812 C-8.51239157 20.83761157 -10.25175817 23.92033217 -12 27 C-12.55026855 27.99241699 -13.10053711 28.98483398 -13.66748047 30.00732422 C-14.18842285 30.92143066 -14.70936523 31.83553711 -15.24609375 32.77734375 C-15.70556396 33.59323975 -16.16503418 34.40913574 -16.63842773 35.24975586 C-17.08774658 35.82733643 -17.53706543 36.40491699 -18 37 C-18.99 37 -19.98 37 -21 37 C-22.60986328 35.11987305 -22.60986328 35.11987305 -24.3203125 32.51171875 C-24.93777344 31.57779297 -25.55523438 30.64386719 -26.19140625 29.68164062 C-26.82949219 28.69357422 -27.46757813 27.70550781 -28.125 26.6875 C-28.77082031 25.71103516 -29.41664063 24.73457031 -30.08203125 23.72851562 C-34.84551572 16.46345283 -34.84551572 16.46345283 -36 13 C-24.12 8.71 -12.24 4.42 0 0 Z " fill="#0561AA" transform="translate(676,487)"/>
<path d="M0 0 C3.48010634 1.16003545 3.88745872 1.89974813 5.85546875 4.8671875 C6.39212158 5.66584229 6.92877441 6.46449707 7.48168945 7.28735352 C8.04460693 8.14127686 8.60752441 8.9952002 9.1875 9.875 C10.35016945 11.61161054 11.51422819 13.34729178 12.6796875 15.08203125 C13.24526367 15.92588379 13.81083984 16.76973633 14.39355469 17.63916016 C17.04650073 21.53794256 19.8617564 25.30595021 22.70703125 29.06640625 C24 31 24 31 24 33 C14.76 33.33 5.52 33.66 -4 34 C-4.95683151 29.21584247 -4.84843818 26.84379185 -4.00390625 22.16796875 C-3.77509766 20.87568359 -3.54628906 19.58339844 -3.31054688 18.25195312 C-3.06139527 16.89709911 -2.8120438 15.54228183 -2.5625 14.1875 C-2.31622245 12.8133004 -2.07077092 11.43895249 -1.82617188 10.06445312 C-1.22555903 6.70808721 -0.61655127 3.35346832 0 0 Z " fill="#199ADB" transform="translate(702,393)"/>
<path d="M0 0 C4.49754715 4.06649832 7.37763767 8.54398797 10.4375 13.75 C11.39968544 15.35758335 12.36321428 16.96436345 13.328125 18.5703125 C13.78638672 19.33504883 14.24464844 20.09978516 14.71679688 20.88769531 C17.01837124 24.67635996 19.47550604 28.35705936 22 32 C17.43966225 31.3937657 13.78565501 29.51860179 9.79296875 27.359375 C9.10874344 26.99531555 8.42451813 26.6312561 7.71955872 26.25616455 C6.2748698 25.48583658 4.83183947 24.71239095 3.39038086 23.93603516 C1.20866207 22.7613937 -0.97812388 21.59668933 -3.16601562 20.43359375 C-9.91970019 16.82923424 -16.58685063 13.1916009 -23 9 C-22.67 8.01 -22.34 7.02 -22 6 C-19.86694336 5.10864258 -19.86694336 5.10864258 -17.08984375 4.39453125 C-16.10048828 4.13349609 -15.11113281 3.87246094 -14.09179688 3.60351562 C-12.53041992 3.21196289 -12.53041992 3.21196289 -10.9375 2.8125 C-9.89271484 2.53986328 -8.84792969 2.26722656 -7.77148438 1.98632812 C-5.18371104 1.31279808 -2.59344518 0.65128433 0 0 Z " fill="#2FC5F6" transform="translate(610,603)"/>
<path d="M0 0 C0.66 0.33 1.32 0.66 2 1 C2.62014771 3.30197144 2.62014771 3.30197144 3.14501953 6.39013672 C3.34507599 7.54158173 3.54513245 8.69302673 3.75125122 9.87936401 C3.95966644 11.13347076 4.16808167 12.38757751 4.3828125 13.6796875 C4.60194305 14.95852814 4.82107361 16.23736877 5.04684448 17.55496216 C5.51105286 20.26606692 5.96947011 22.97806352 6.42333984 25.69091797 C7.00515145 29.1681768 7.59673839 32.64367502 8.19211006 36.11863518 C8.7590506 39.43008309 9.32103844 42.74235888 9.8828125 46.0546875 C10.09527618 47.30474579 10.30773987 48.55480408 10.52664185 49.84274292 C10.72039398 51.00049225 10.91414612 52.15824158 11.11376953 53.35107422 C11.37119431 54.88210281 11.37119431 54.88210281 11.63381958 56.44406128 C12 59 12 59 12 62 C9 61 9 61 7.98712158 59.31217957 C7.68876404 58.58033951 7.39040649 57.84849945 7.08300781 57.09448242 C6.73965393 56.26659714 6.39630005 55.43871185 6.0425415 54.58573914 C5.68303406 53.68474991 5.32352661 52.78376068 4.953125 51.85546875 C4.57766541 50.93413651 4.20220581 50.01280426 3.81536865 49.06355286 C3.02327378 47.11123905 2.23682486 45.1566266 1.45556641 43.19995117 C0.25650471 40.20375387 -0.9660566 37.21794911 -2.19140625 34.23242188 C-2.95716648 32.3365174 -3.72153605 30.44005052 -4.484375 28.54296875 C-4.85197937 27.64805222 -5.21958374 26.75313568 -5.59832764 25.83110046 C-6.0944455 24.57508781 -6.0944455 24.57508781 -6.60058594 23.29370117 C-6.89576111 22.55947433 -7.19093628 21.8252475 -7.49505615 21.06877136 C-8.07708494 18.68418048 -7.78016415 17.29966049 -7 15 C-6.34 15 -5.68 15 -5 15 C-4.9175 14.195625 -4.835 13.39125 -4.75 12.5625 C-3.79803325 8.04065795 -1.98419821 4.15297299 0 0 Z " fill="#14A1E9" transform="translate(578,613)"/>
<path d="M0 0 C5.46532767 2.29543762 10.74037888 4.823114 16 7.5625 C18.98395101 9.09695127 18.98395101 9.09695127 22.3125 9.9375 C25 11 25 11 26.125 12.6875 C25.93047974 16.28612482 24.25067668 19.21588372 22 22 C21.01 22.33 20.02 22.66 19 23 C18.64270064 24.32711192 18.31674575 25.66262906 18 27 C16.75621266 29.3914881 15.37524112 31.67928062 14 34 C13.67 34.66 13.34 35.32 13 36 C12.01 35.67 11.02 35.34 10 35 C9.0170914 32.65436631 8.23932314 30.43500816 7.51953125 28.0078125 C7.30181564 27.30606903 7.08410004 26.60432556 6.85978699 25.88131714 C6.40119735 24.39512887 5.94849564 22.90711302 5.5012207 21.41748047 C4.81625596 19.13750211 4.11393822 16.86346852 3.40820312 14.58984375 C2.96511633 13.1461489 2.52302577 11.70214784 2.08203125 10.2578125 C1.87270462 9.57647247 1.66337799 8.89513245 1.44770813 8.19314575 C0.59686503 5.34749757 0 2.98904656 0 0 Z " fill="#0D81C9" transform="translate(665,589)"/>
<path d="M0 0 C1.33912585 3.12254943 2.67030658 6.24842358 4 9.375 C4.3815625 10.26445313 4.763125 11.15390625 5.15625 12.0703125 C5.5171875 12.92109375 5.878125 13.771875 6.25 14.6484375 C6.58515625 15.43395996 6.9203125 16.21948242 7.265625 17.02880859 C8 19 8 19 8 21 C-0.47694456 19.60737678 -8.47945536 17.05942254 -16.625 14.375 C-17.92821659 13.9500028 -19.23160107 13.52552006 -20.53515625 13.1015625 C-23.69178585 12.07273507 -26.84663398 11.0387784 -30 10 C-30 9.34 -30 8.68 -30 8 C-4.79841897 0 -4.79841897 0 0 0 Z " fill="#32D0FE" transform="translate(660,590)"/>
<path d="M0 0 C4.89445983 1.76053075 9.18506398 4.40753751 13.56445312 7.16601562 C18.07486178 9.86229307 21.75665814 10.62506356 27 11 C26.58955515 17.57791873 26.13391403 23.74051886 24 30 C20.95810532 27.05028395 18.03577359 24.01273229 15.1875 20.875 C14.58292969 20.21242188 13.97835937 19.54984375 13.35546875 18.8671875 C12 17 12 17 12 14 C5.4 13.67 -1.2 13.34 -8 13 C-6.43469176 9.0867294 -5.35471762 6.86800738 -2.875 3.6875 C-2.33617187 2.99011719 -1.79734375 2.29273438 -1.2421875 1.57421875 C-0.62730469 0.79498047 -0.62730469 0.79498047 0 0 Z " fill="#0D7EC8" transform="translate(668,415)"/>
<path d="M0 0 C-1.26537374 3.45619821 -2.71604686 6.25579303 -4.8984375 9.21484375 C-5.74148438 10.36823242 -5.74148438 10.36823242 -6.6015625 11.54492188 C-7.18679688 12.33447266 -7.77203125 13.12402344 -8.375 13.9375 C-9.5296433 15.5083819 -10.68331061 17.07998172 -11.8359375 18.65234375 C-12.37959961 19.39339355 -12.92326172 20.13444336 -13.48339844 20.89794922 C-15.39866805 23.5525647 -17.21294159 26.25778968 -19 29 C-19.66 28.67 -20.32 28.34 -21 28 C-21.57836914 26.25341797 -21.57836914 26.25341797 -22.03515625 23.9921875 C-22.20466797 23.16976562 -22.37417969 22.34734375 -22.54882812 21.5 C-22.71833984 20.63375 -22.88785156 19.7675 -23.0625 18.875 C-23.23587891 18.03195312 -23.40925781 17.18890625 -23.58789062 16.3203125 C-24.55214993 11.56182213 -25.36731976 6.81358781 -26 2 C-22.4169389 1.66369671 -18.83351076 1.33147475 -15.25 1 C-14.23421875 0.90460937 -13.2184375 0.80921875 -12.171875 0.7109375 C-11.1921875 0.62070312 -10.2125 0.53046875 -9.203125 0.4375 C-8.30239258 0.35371094 -7.40166016 0.26992188 -6.47363281 0.18359375 C-4.32080902 0.02381054 -2.15874522 0 0 0 Z " fill="#0C7FC9" transform="translate(686,655)"/>
<path d="M0 0 C-0.61211316 4.26799483 -2.12274355 7.47022049 -4.16015625 11.25390625 C-4.79498737 12.44983503 -5.42975098 13.64579964 -6.06445312 14.84179688 C-7.06501454 16.70828082 -8.06830137 18.57325796 -9.07348633 20.43725586 C-10.04679202 22.24754259 -11.01007325 24.06290141 -11.97265625 25.87890625 C-12.55281494 26.9572876 -13.13297363 28.03566895 -13.73071289 29.14672852 C-15.2709669 32.08863876 -15.2709669 32.08863876 -15 36 C-16.91512272 36.50588147 -18.83216922 37.00448391 -20.75 37.5 C-21.81734375 37.7784375 -22.8846875 38.056875 -23.984375 38.34375 C-27 39 -27 39 -31 39 C-29.51155369 34.7876381 -27.34841371 31.23995188 -24.859375 27.5625 C-24.45471008 26.95994385 -24.05004517 26.3573877 -23.63311768 25.73657227 C-22.77824629 24.46755771 -21.92083428 23.20025136 -21.06103516 21.93457031 C-19.75843897 20.01245259 -18.47076046 18.08091034 -17.18359375 16.1484375 C-16.34725007 14.91085242 -15.5100381 13.67385359 -14.671875 12.4375 C-14.29351501 11.86652588 -13.91515503 11.29555176 -13.52532959 10.70727539 C-10.5444421 6.36495037 -5.77697144 0 0 0 Z " fill="#16ABF5" transform="translate(719,354)"/>
<path d="M0 0 C3.32688551 1.31004208 6.60477775 2.69248027 9.86328125 4.1640625 C10.74951172 4.56367188 11.63574219 4.96328125 12.54882812 5.375 C13.46083984 5.7875 14.37285156 6.2 15.3125 6.625 C16.24384766 7.04523438 17.17519531 7.46546875 18.13476562 7.8984375 C20.42360455 8.93134943 22.71199959 9.96523234 25 11 C24.42883593 19.09925363 23.45899923 27.01091681 22 35 C17.93950174 33.64650058 17.43448485 31.81118517 15.3125 28.13671875 C14.96872314 27.54832718 14.62494629 26.95993561 14.27075195 26.35371399 C13.17198832 24.469774 12.08556717 22.57906954 11 20.6875 C9.91224203 18.80801031 8.82195135 16.93003972 7.72924805 15.05342102 C6.73531401 13.34395406 5.74833735 11.63044752 4.76171875 9.91674805 C3.10928014 7.04692553 3.10928014 7.04692553 1.26953125 4.79614258 C0 3 0 3 0 0 Z " fill="#0D80C9" transform="translate(697,454)"/>
<path d="M0 0 C8.58 0 17.16 0 26 0 C25.26272525 3.68637377 24.64603292 6.13018135 23.15234375 9.42578125 C22.79462891 10.22177734 22.43691406 11.01777344 22.06835938 11.83789062 C21.69517578 12.65451172 21.32199219 13.47113281 20.9375 14.3125 C20.56044922 15.14845703 20.18339844 15.98441406 19.79492188 16.84570312 C18.86788193 18.89927262 17.93613122 20.95056287 17 23 C13.40611297 22.39380792 13.02949836 22.03602249 10.52734375 18.98046875 C9.65288583 17.72385016 8.78995235 16.4591493 7.9375 15.1875 C7.07184957 13.93082768 6.20596998 12.67431319 5.33984375 11.41796875 C4.93749512 10.82161621 4.53514648 10.22526367 4.12060547 9.61083984 C2.93672365 7.86303109 2.93672365 7.86303109 1.19140625 5.80078125 C0 4 0 4 0 0 Z " fill="#0C7FC8" transform="translate(689,276)"/>
<path d="M0 0 C0.99 0 1.98 0 3 0 C4.37134601 2.72168671 5.72204712 5.4506488 7.0625 8.1875 C7.64741211 9.34088867 7.64741211 9.34088867 8.24414062 10.51757812 C9.74843304 13.61934921 10.9612474 16.13840061 11.1171875 19.60546875 C9.38773676 23.31229848 6.79412584 26.11101097 4.0625 29.125 C2.96875688 30.35562091 1.87626058 31.58735135 0.78515625 32.8203125 C0.29926025 33.35930176 -0.18663574 33.89829102 -0.68725586 34.45361328 C-2.2013682 36.17681933 -2.2013682 36.17681933 -4 39 C-4.66 39 -5.32 39 -6 39 C-5.34196911 30.53175432 -3.9175703 22.23304406 -2.4375 13.875 C-2.20084072 12.52349545 -1.96451031 11.17193326 -1.72851562 9.8203125 C-1.1555627 6.54629578 -0.57931595 3.27289574 0 0 Z " fill="#0C80C9" transform="translate(724,472)"/>
<path d="M0 0 C8.12867018 0.56059794 16.04087154 2.3326727 24 4 C21.51263937 8.39489733 18.58975229 12.33352192 15.5 16.3125 C15.01402344 16.95767578 14.52804687 17.60285156 14.02734375 18.26757812 C12.75672197 19.90346039 11.38440862 21.45921992 10 23 C9.01 23 8.02 23 7 23 C5.85017194 20.08489248 4.70584512 17.16765566 3.5625 14.25 C3.23701172 13.425 2.91152344 12.6 2.57617188 11.75 C2.26357422 10.95078125 1.95097656 10.1515625 1.62890625 9.328125 C1.34088135 8.5949707 1.05285645 7.86181641 0.75610352 7.10644531 C0.02692808 5.07501952 -0.60243249 3.12228764 -1 1 C-0.67 0.67 -0.34 0.34 0 0 Z " fill="#0C7BC4" transform="translate(695,511)"/>
<path d="M0 0 C3.06916856 1.22766742 5.77398747 2.3308953 8.62890625 3.875 C9.27150391 4.22046875 9.91410156 4.5659375 10.57617188 4.921875 C11.23166016 5.27765625 11.88714844 5.6334375 12.5625 6 C18.24112379 9.07712251 18.24112379 9.07712251 24 12 C24 12.99 24 13.98 24 15 C20.73120384 16.00674459 17.4596529 17.00422489 14.1875 18 C13.25873047 18.28617188 12.32996094 18.57234375 11.37304688 18.8671875 C10.48037109 19.13789062 9.58769531 19.40859375 8.66796875 19.6875 C7.84578857 19.93886719 7.0236084 20.19023438 6.17651367 20.44921875 C4 21 4 21 1 21 C0.67 14.07 0.34 7.14 0 0 Z " fill="#0D81C8" transform="translate(632,635)"/>
<path d="M0 0 C-3.84282322 6.12415343 -7.72368078 12.16865561 -12 18 C-17.0261109 17.46323088 -20.62239409 15.05581499 -24.8125 12.4375 C-25.50537109 12.01275391 -26.19824219 11.58800781 -26.91210938 11.15039062 C-28.61216951 10.10690544 -30.30665476 9.05434704 -32 8 C-31.67 7.34 -31.34 6.68 -31 6 C-27.99787701 5.22358888 -25.04205332 4.58671042 -22 4 C-20.033798 3.61431427 -18.06761657 3.22851465 -16.10205078 2.83959961 C-14.12239009 2.4493074 -12.14129059 2.06633542 -10.16015625 1.68359375 C-2.11931894 -0.05577155 -2.11931894 -0.05577155 0 0 Z " fill="#199ADA" transform="translate(677,396)"/>
<path d="M0 0 C1.8549761 2.78246415 2.33586208 3.88529882 2.8515625 7.01953125 C2.98046875 7.79490234 3.109375 8.57027344 3.2421875 9.36914062 C3.36851562 10.17544922 3.49484375 10.98175781 3.625 11.8125 C3.7590625 12.60720703 3.893125 13.40191406 4.03125 14.22070312 C4.72938994 18.52708676 5.15512408 22.62127037 5 27 C-0.97303768 22.7897786 -6.34164416 18.04796665 -11.6796875 13.07421875 C-13.81389508 10.98359832 -13.81389508 10.98359832 -16 10 C-16 9.01 -16 8.02 -16 7 C-10.72 4.69 -5.44 2.38 0 0 Z " fill="#0C7FC9" transform="translate(710,431)"/>
<path d="M0 0 C0 7.59 0 15.18 0 23 C-4.77106506 21.40964498 -8.52505921 19.77190615 -12.875 17.375 C-14.02742187 16.74335938 -15.17984375 16.11171875 -16.3671875 15.4609375 C-17.67042969 14.73777344 -17.67042969 14.73777344 -19 14 C-19 13.34 -19 12.68 -19 12 C-17.47119141 10.67138672 -17.47119141 10.67138672 -15.3515625 9.1796875 C-14.21460938 8.37724609 -14.21460938 8.37724609 -13.0546875 7.55859375 C-12.25289062 7.00300781 -11.45109375 6.44742187 -10.625 5.875 C-9.43390625 5.03001953 -9.43390625 5.03001953 -8.21875 4.16796875 C-2.26450893 0 -2.26450893 0 0 0 Z " fill="#0C7DC8" transform="translate(696,304)"/>
<path d="M0 0 C0.33 0.66 0.66 1.32 1 2 C0.33355469 2.84820312 -0.33289063 3.69640625 -1.01953125 4.5703125 C-1.45982666 5.13081299 -1.90012207 5.69131348 -2.35375977 6.26879883 C-3.33422912 7.51641531 -4.31519417 8.76364238 -5.29663086 10.01049805 C-7.91254973 13.33533801 -10.51973577 16.66635781 -13.109375 20.01171875 C-13.85223755 20.96763916 -13.85223755 20.96763916 -14.61010742 21.94287109 C-15.56642833 23.17391926 -16.51979877 24.40726603 -17.4699707 25.64306641 C-20.77513519 29.88756759 -20.77513519 29.88756759 -23 31 C-24.59759118 27.11232564 -25.63393173 23.34929024 -24.98681641 19.12744141 C-21.41297019 11.42271703 -10.24725391 6.54331203 -3.24072266 2.36010742 C-1.10742373 1.18660975 -1.10742373 1.18660975 0 0 Z " fill="#0C7FC7" transform="translate(748,265)"/>
<path d="M0 0 C5.94162007 0.56624836 10.92821148 2.3206058 16.4375 4.5625 C17.26443359 4.89185547 18.09136719 5.22121094 18.94335938 5.56054688 C20.96498093 6.36685836 22.98288449 7.18248123 25 8 C24.67 9.98 24.34 11.96 24 14 C20.55486474 15.14837842 19.92266428 14.85516307 16.65625 13.6015625 C15.82222656 13.28703125 14.98820313 12.9725 14.12890625 12.6484375 C13.26136719 12.31070312 12.39382813 11.97296875 11.5 11.625 C9.78129757 10.97122909 8.06254948 10.31757822 6.34375 9.6640625 C5.58255859 9.36967285 4.82136719 9.0752832 4.03710938 8.77197266 C2.37271232 8.14124117 0.68856027 7.56285342 -1 7 C-0.67 4.69 -0.34 2.38 0 0 Z " fill="#0B7DC4" transform="translate(688,497)"/>
<path d="M0 0 C6.6 0.33 13.2 0.66 20 1 C20.495 7.93 20.495 7.93 21 15 C16.65540438 14.13108088 14.48488664 13.48920474 11 11 C11 10.34 11 9.68 11 9 C10.46375 8.9175 9.9275 8.835 9.375 8.75 C6.08505507 7.71107002 3.71535195 6.11194041 1 4 C0.67 2.68 0.34 1.36 0 0 Z " fill="#32D0FE" transform="translate(628,575)"/>
<path d="M0 0 C-0.54981916 6.04801071 -1.90429574 11.30601106 -4 17 C-4.66 17 -5.32 17 -6 17 C-6.67260351 15.23141309 -7.33788395 13.46003984 -8 11.6875 C-8.37125 10.70136719 -8.7425 9.71523438 -9.125 8.69921875 C-10 6 -10 6 -10 3 C-3.375 0 -3.375 0 0 0 Z " fill="#34D1FE" transform="translate(687,634)"/>
<path d="M0 0 C3.99186862 1.56324925 6.41653504 4.36019349 9.1875 7.5 C9.66582275 8.03318848 10.14414551 8.56637695 10.63696289 9.11572266 C11.61895231 10.21087452 12.59869102 11.30804869 13.57617188 12.40722656 C14.89706674 13.88485312 16.23684627 15.34553882 17.578125 16.8046875 C21.44398847 21.01617452 25.03626276 25.10339065 28 30 C24.99125902 28.66196542 23.01614357 27.22415624 20.79296875 24.8046875 C20.20926514 24.1746582 19.62556152 23.54462891 19.02416992 22.89550781 C18.11501831 21.89535645 18.11501831 21.89535645 17.1875 20.875 C16.56528564 20.19791992 15.94307129 19.52083984 15.30200195 18.82324219 C13.52816054 16.88797354 11.76308036 14.94506896 10 13 C9.195625 12.12085938 8.39125 11.24171875 7.5625 10.3359375 C3.13783113 5.41349338 3.13783113 5.41349338 2 2 C1.34 2 0.68 2 0 2 C0 1.34 0 0.68 0 0 Z " fill="#0A79C0" transform="translate(556,580)"/>
<path d="M0 0 C0.66 0 1.32 0 2 0 C2.33 0.66 2.66 1.32 3 2 C3.66 1.34 4.32 0.68 5 0 C7.29612756 11.52164009 7.29612756 11.52164009 7 17 C7.99 17.33 8.98 17.66 10 18 C10 18.99 10 19.98 10 21 C7 20 7 20 6.0168457 18.26586914 C5.73929443 17.52973389 5.46174316 16.79359863 5.17578125 16.03515625 C4.86962891 15.23529297 4.56347656 14.43542969 4.24804688 13.61132812 C3.93931641 12.77021484 3.63058594 11.92910156 3.3125 11.0625 C2.83200195 9.80663086 2.83200195 9.80663086 2.34179688 8.52539062 C0 2.31887993 0 2.31887993 0 0 Z " fill="#17AFF7" transform="translate(580,654)"/>
<path d="M0 0 C-0.33 1.32 -0.66 2.64 -1 4 C-1.6290625 4.04898437 -2.258125 4.09796875 -2.90625 4.1484375 C-7.1209552 4.51658946 -11.16189983 4.94540286 -15.25 6.0625 C-18.69026513 6.92256628 -21.47922013 7.17603899 -25 7 C-22.2165199 5.51226426 -19.57467095 4.50744422 -16.5234375 3.7109375 C-15.688125 3.49179687 -14.8528125 3.27265625 -13.9921875 3.046875 C-13.12851562 2.82515625 -12.26484375 2.6034375 -11.375 2.375 C-10.50359375 2.14554687 -9.6321875 1.91609375 -8.734375 1.6796875 C-2.27557664 0 -2.27557664 0 0 0 Z " fill="#16A9F0" transform="translate(788,373)"/>
<path d="M0 0 C0.66 0 1.32 0 2 0 C3.32 6.93 4.64 13.86 6 21 C5.01 21 4.02 21 3 21 C2.01 14.07 1.02 7.14 0 0 Z " fill="#13A9E9" transform="translate(601,741)"/>
<path d="M0 0 C0.66 0 1.32 0 2 0 C2.66 1.65 3.32 3.3 4 5 C4.99 5 5.98 5 7 5 C6.34 6.65 5.68 8.3 5 10 C4.34 10 3.68 10 3 10 C2.01 6.7 1.02 3.4 0 0 Z " fill="#2AC4FC" transform="translate(678,641)"/>
<path d="M0 0 C0.66 0 1.32 0 2 0 C4.47346304 2.47346304 4.98313144 3.70761168 5.1875 7.25 C5.125625 8.1575 5.06375 9.065 5 10 C4.01 10 3.02 10 2 10 C1.34 6.7 0.68 3.4 0 0 Z " fill="#0B97D6" transform="translate(592,686)"/>
<path d="M0 0 C0.33 0.66 0.66 1.32 1 2 C0.34 2 -0.32 2 -1 2 C-0.505 2.45375 -0.01 2.9075 0.5 3.375 C2 5 2 5 2 7 C0.02 6.34 -1.96 5.68 -4 5 C-4 3.68 -4 2.36 -4 1 C-2.68 0.67 -1.36 0.34 0 0 Z " fill="#1CA5E3" transform="translate(592,608)"/>
<path d="M0 0 C0.66 0 1.32 0 2 0 C1.5206753 4.31392226 0.2542015 6.16569547 -3 9 C-3 4.73350364 -2.43160605 3.36683915 0 0 Z " fill="#0969B1" transform="translate(679,500)"/>
<path d="M0 0 C0.99 0.33 1.98 0.66 3 1 C3 2.98 3 4.96 3 7 C3.99 7.33 4.98 7.66 6 8 C6 8.99 6 9.98 6 11 C5.01 10.67 4.02 10.34 3 10 C2.05078125 7.71484375 2.05078125 7.71484375 1.3125 4.9375 C1.06113281 4.01839844 0.80976562 3.09929688 0.55078125 2.15234375 C0.36902344 1.44207031 0.18726563 0.73179687 0 0 Z " fill="#12A3E9" transform="translate(584,664)"/>
<path d="M0 0 C5.28 0.33 10.56 0.66 16 1 C12.01219998 2.99390001 10.52852428 3.22686963 6.25 3.125 C5.26515625 3.10695313 4.2803125 3.08890625 3.265625 3.0703125 C2.14414062 3.03550781 2.14414062 3.03550781 1 3 C0.67 2.01 0.34 1.02 0 0 Z " fill="#28BDFD" transform="translate(628,575)"/>
<path d="M0 0 C2.375 -0.125 2.375 -0.125 5 0 C6.95216435 1.95216435 7.84826645 3.53199953 9 6 C5.9168649 4.80100302 2.93720508 3.52299523 0 2 C0 1.34 0 0.68 0 0 Z " fill="#138FD2" transform="translate(720,430)"/>
<path d="M0 0 C3.71888239 0.50712033 6.73454239 1.11608215 10 3 C9.67 3.99 9.34 4.98 9 6 C6.03 4.35 3.06 2.7 0 1 C0 0.67 0 0.34 0 0 Z " fill="#1175B7" transform="translate(669,648)"/>
<path d="M0 0 C0.99 0 1.98 0 3 0 C4.65 2.97 6.3 5.94 8 9 C5.625 8.3125 5.625 8.3125 3 7 C1.75 4.5 1.75 4.5 1 2 C0.67 1.34 0.34 0.68 0 0 Z " fill="#34D0FE" transform="translate(619,619)"/>
<path d="M0 0 C0.66 0 1.32 0 2 0 C2.33 2.31 2.66 4.62 3 7 C0 6 0 6 -1.1875 3.9375 C-1.5896875 2.9784375 -1.5896875 2.9784375 -2 2 C-1.34 2 -0.68 2 0 2 C0 1.34 0 0.68 0 0 Z " fill="#129BE9" transform="translate(592,739)"/>
<path d="M0 0 C3.34373475 0.55728913 6.03312999 1.35173889 9 3 C9 3.66 9 4.32 9 5 C5.22454612 3.90931332 2.52956528 3.0916909 0 0 Z " fill="#137EC1" transform="translate(660,643)"/>
<path d="M0 0 C2.3125 0.1875 2.3125 0.1875 5 1 C6.8125 3.5625 6.8125 3.5625 8 6 C6.35 5.67 4.7 5.34 3 5 C3 4.01 3 3.02 3 2 C2.01 1.67 1.02 1.34 0 1 C0 0.67 0 0.34 0 0 Z " fill="#24B8E9" transform="translate(624,629)"/>
<path d="M0 0 C0.66 0.66 1.32 1.32 2 2 C1.625 4.625 1.625 4.625 1 7 C0.01 7.33 -0.98 7.66 -2 8 C-1.33333333 5.33333333 -0.66666667 2.66666667 0 0 Z " fill="#1297E1" transform="translate(510,520)"/>
<path d="M0 0 C3.465 1.485 3.465 1.485 7 3 C7 3.66 7 4.32 7 5 C6.01 5.33 5.02 5.66 4 6 C4 5.34 4 4.68 4 4 C3.01 4 2.02 4 1 4 C0.67 2.68 0.34 1.36 0 0 Z " fill="#178BD0" transform="translate(720,442)"/>
<path d="M0 0 C0 0.66 0 1.32 0 2 C-1.32 2.33 -2.64 2.66 -4 3 C-4.33 2.34 -4.66 1.68 -5 1 C-3 0 -3 0 0 0 Z " fill="#1197F4" transform="translate(709,391)"/>
<path d="" fill="#0044DD" transform="translate(0,0)"/>
<path d="" fill="#00FFFF" transform="translate(0,0)"/>
<path d="" fill="#00FFFF" transform="translate(0,0)"/>
</svg>
